<?xml version="1.0" encoding="UTF-8" standalone="no"?>
<svg
   xmlns:dc="http://purl.org/dc/elements/1.1/"
   xmlns:cc="http://creativecommons.org/ns#"
   xmlns:rdf="http://www.w3.org/1999/02/22-rdf-syntax-ns#"
   xmlns:svg="http://www.w3.org/2000/svg"
   xmlns="http://www.w3.org/2000/svg"
   xmlns:sodipodi="http://sodipodi.sourceforge.net/DTD/sodipodi-0.dtd"
   xmlns:inkscape="http://www.inkscape.org/namespaces/inkscape"
   version="1.1"
   id="The_Pirate_Bay_Logo"
   width="700"
   height="700"
   viewBox="0 0 700 700"
   xml:space="preserve"
   sodipodi:docname="the-pirate-bay-logo.svg"
   inkscape:export-filename="G:\Users\suitedoalex\sites\the-pirate-bay-logo-0.png"
   inkscape:export-xdpi="561.73712"
   inkscape:export-ydpi="561.73712"
   inkscape:version="0.92.4 (5da689c313, 2019-01-14)"><metadata
   id="metadata23"><rdf:RDF><cc:Work
       rdf:about=""><dc:format>image/svg+xml</dc:format><dc:type
         rdf:resource="http://purl.org/dc/dcmitype/StillImage" /><dc:title>The Pirate Bay Logo</dc:title></cc:Work></rdf:RDF></metadata><sodipodi:namedview
   pagecolor="#ffffff"
   bordercolor="#666666"
   borderopacity="1"
   objecttolerance="10"
   gridtolerance="10"
   guidetolerance="10"
   inkscape:pageopacity="0"
   inkscape:pageshadow="2"
   inkscape:window-width="1600"
   inkscape:window-height="837"
   id="namedview21"
   showgrid="false"
   inkscape:zoom="0.76747967"
   inkscape:cx="308.42"
   inkscape:cy="384.43521"
   inkscape:window-x="-8"
   inkscape:window-y="-8"
   inkscape:window-maximized="1"
   inkscape:current-layer="The_Pirate_Bay_Logo" />
  <title
   id="title2">The Pirate Bay Logo</title>
  <desc
   id="desc4">For more information see: http://commons.wikimedia.org/wiki/File:The_Pirate_Bay_logo.svg</desc>
  <defs
   id="defs9">
    <filter
   id="GaussianBlur">
      <feGaussianBlur
   stdDeviation="2.7961191"
   id="feGaussianBlur6" />
    </filter>
  </defs>
  
  <radialGradient
   id="radialGradient"
   cx="425.67111"
   cy="41.247601"
   r="261.6557"
   gradientTransform="matrix(1.289661,0.00126347,9.265411e-4,-0.90219834,-236.51578,345.73198)"
   gradientUnits="userSpaceOnUse">
      <stop
   offset="0"
   stop-color="#a4724e"
   id="stop12" />
      <stop
   offset="0.41"
   stop-color="#906444"
   id="stop14" />
      <stop
   offset="1"
   stop-color="#3f2b1d"
   id="stop16" />
  </radialGradient>
  <path
   id="Logo"
   d="m 287.14385,97.679827 c -0.89537,0.0497 -0.94254,0.318393 -0.79008,1.052888 0.23669,1.142172 0.66374,3.051685 2.73751,5.633375 0.96528,1.20029 1.517,5.17094 0.31586,8.79203 -0.67974,2.0485 -2.69792,3.926 -3.86957,6.00146 -1.32748,2.35173 -1.81602,4.92835 -2.65833,7.42328 -1.0293,3.05168 -4.42971,3.16287 -6.05453,5.79088 -2.39974,3.88136 -2.03839,6.3965 -4.44824,9.3707 -2.56399,3.16203 -5.0926,4.77084 -6.34343,4.92246 -0.15162,0.0177 -1.47826,1.28957 -1.7638,1.28957 0,1.24915 -3.05337,3.56298 -3.05337,6.55402 -1.14976,0 -1.89689,14.50289 -2.15885,16.13529 -0.47337,2.95314 -3.54022,6.96254 -7.73914,10.47665 -3.47958,2.91271 -7.80316,5.29645 -11.52954,8.1603 -7.25819,5.5761 -12.19581,11.76708 -11.66094,12.42408 0.4759,0.58709 4.10036,0.0775 7.52857,-1.50016 3.02473,-1.39149 5.70833,-3.87125 8.05501,-3.13255 1.57512,0.49697 -3.75081,12.56727 -3.81651,13.24027 -0.24174,2.45702 -0.98213,4.93173 -1.079,7.08046 -0.17267,3.83083 0.5534,6.68036 1.6324,6.73848 2.52777,0.13646 5.2796,-9.66803 10.34441,-17.55711 5.06649,-7.88907 12.44766,-13.87453 16.8462,-17.84686 4.26462,-3.8502 7.87139,-8.59409 8.37088,-11.97681 0.075,-0.51549 0.84399,-2.98767 1.02677,-6.47568 0.19289,-3.7129 -0.13477,-8.58904 1.7638,-13.50307 1.55491,-4.02456 6.87746,-8.24706 9.39681,-10.87086 3.34818,-3.48716 5.93323,-6.97938 6.10675,-6.21203 1.74948,7.71556 1.98027,17.66661 4.02708,26.66416 1.53301,6.74017 4.52405,15.08493 3.76429,21.74255 -0.17604,1.53638 -0.72523,1.38392 -1.34264,2.92198 -1.86656,4.6605 -5.32593,9.64697 -8.92344,15.60885 -4.77505,7.91434 -10.04623,17.11826 -14.8196,25.42765 -1.8076,3.14687 -4.38844,4.87108 -6.60708,6.97517 -3.35071,3.17635 -6.26847,6.13455 -7.37021,7.55468 -1.80592,2.3273 -2.68445,4.82223 -2.07967,5.31751 0.26449,0.21731 1.28621,0.0152 2.42164,-0.86843 0.88274,-0.68732 1.74359,-1.98027 3.00115,-2.55304 1.49511,-0.68227 -0.46832,9.16518 0.76314,18.66222 1.21292,9.36481 5.27202,17.82581 7.39632,19.47842 0.63005,0.48939 4.68746,6.13876 5.39584,9.3707 0.13056,0.59889 -0.43463,1.22641 -0.44727,1.52711 -0.41778,8.90069 -22.0542,-15.22475 -28.34878,-28.16516 -2.97083,-6.10843 -6.73006,-18.63443 -6.52791,-25.11179 0.19458,-6.26258 2.59769,-12.48809 5.07997,-15.03018 0.57109,-0.58541 1.13375,-1.3258 1.52711,-1.8952 0.56856,-0.82378 -0.21563,-1.38644 -0.60562,-1.36876 -1.68967,0.0775 -6.21625,7.92277 -6.34344,7.92277 0,3.75249 -7.10235,5.94082 -8.73896,8.26559 -0.72186,1.02509 -4.0532,2.89839 -7.26493,5.13304 -1.9272,1.34011 -3.488,3.38524 -5.29055,3.84346 -0.5913,0.15077 -1.23903,-0.6132 -1.78991,-0.65784 -0.41273,-0.0345 -1.23482,-0.98803 -1.5271,-1.26347 -0.2746,-0.25943 -1.52543,-4.77337 -1.52711,-4.84328 -0.0708,-1.83371 -4.85255,-17.62197 -9.42377,-32.16614 -3.97486,-12.64897 -7.61364,-24.46995 -8.94954,-24.08501 -0.59804,0.17183 0.12129,2.77962 0.10529,12.21349 0,0.0505 -11.04521,22.54275 -11.87152,25.08484 -0.17267,0.52981 -1.56501,11.07975 -3.47453,22.40039 -1.07058,6.35102 -0.58793,13.89222 -1.47404,19.58371 -0.71597,4.59396 -1.30727,9.06831 -2.15884,9.66046 -1.6762,1.16491 -0.24933,3.65562 -0.18447,3.71122 0.92991,0.8044 5.01006,-6.55065 6.68626,-12.76606 1.57764,-5.85489 2.89586,-12.54705 2.89586,-15.79331 0.0194,0 3.7129,-19.18867 5.23833,-19.18867 0,-4.46677 7.76862,-20.19775 10.00243,-17.42571 0.9855,1.22388 2.12178,3.68932 2.39553,7.50162 0.22742,3.15866 -0.28386,7.28766 -0.63173,11.9768 -0.87601,11.8134 -2.4326,23.19048 -3.71122,34.79836 -1.44541,13.1173 -4.91488,50.22695 -5.02775,50.77529 -0.66121,3.22689 -1.75032,17.26652 -3.21173,31.45523 -1.752,17.01719 -3.31617,34.32919 -3.31702,34.3772 -0.0472,6.19014 -10.26607,-5.08839 -10.87085,-5.21221 -2.9683,-0.60562 -28.11294,-24.17346 -32.11307,-23.32188 -0.65532,0.13898 -0.18194,1.75369 0.76313,3.23784 1.93057,3.034 20.98026,18.79278 30.66514,27.08532 4.51984,3.86957 5.3074,2.92029 5.47502,6.58097 0.11792,2.58 -9.43977,7.55721 -14.13481,11.84541 -1.971,1.80001 -3.46442,3.04747 -2.42164,4.6327 0.32008,0.48686 2.13104,-0.30239 2.05355,0.44727 -1.13459,10.89444 1.24494,15.78489 2.60611,18.45164 1.33253,2.61285 2.48481,5.56093 4.6327,8.37088 5.23833,6.85388 15.0942,13.87032 23.37411,16.34587 2.03334,0.60815 8.46774,3.99087 17.13596,4.29073 6.53043,0.22658 13.33124,-0.92065 15.81942,-0.86842 3.42483,0.0716 0.52981,2.29782 -0.86842,5.89617 -1.43951,3.70448 -1.53974,8.01879 -1.52711,12.13432 0.002,0.67553 1.07479,8.07101 0.76313,8.18641 -0.10865,0.0404 -0.22489,0.0665 -0.34197,0.10529 -2.65075,0.87431 -5.27792,0.50875 -7.68608,1.18428 -3.75839,1.05205 -7.17648,3.29007 -10.79252,6.23815 -3.33386,2.71898 -5.42279,7.17396 -7.10741,10.58194 -1.29211,2.61454 -2.58337,4.47014 -2.60611,5.26444 -0.0143,0.48686 1.87919,-0.28891 3.50064,-1.52711 1.34854,-1.03014 1.7739,-2.19842 2.7114,-2.6061 2.66085,-1.15649 4.92161,-0.2847 5.10692,1.52711 0.17267,1.69135 -1.43951,3.41304 -3.00115,4.94857 -5.95597,5.85826 -14.81623,-1.19187 -19.45231,-5.89617 -1.4572,-1.47826 -1.59786,-2.66086 -2.26413,-2.94809 -1.03772,-0.44642 -2.09398,0.34619 -2.84279,1.94826 -0.47928,1.02678 -0.57951,2.47892 -1.26347,3.84347 -1.12196,2.23549 -2.84532,3.04326 -6.44873,6.08063 -2.87312,2.42249 -11.2819,2.13357 -9.89714,-0.36893 0.1971,-0.35798 1.40076,-0.46159 1.8952,-0.92149 0.84399,-0.78587 0.44474,-1.22135 0.21058,-1.73768 -0.48181,-1.05457 -1.90699,-1.76296 -1.97438,-1.7638 -2.02828,-0.0269 -3.6531,-0.47675 -4.84328,0.34198 -1.58355,1.0891 -1.98112,3.13929 -2.36942,5.18526 -0.38831,2.04597 -0.7724,4.09363 -0.34198,5.73866 0.59467,2.27676 2.33573,3.9698 3.23784,4.02708 0.17352,0.0118 1.27442,0.36641 3.71122,0.55256 l 368.03729,0.18446 c 1.82528,-0.73281 3.53433,-0.38409 4.89634,-1.13206 4.07763,-2.2397 5.32677,-6.04105 6.29122,-11.97681 0.52644,-3.23868 -0.94339,-7.31883 -1.52711,-8.50228 -0.75555,-1.52963 -1.64587,-2.60947 -2.79057,-3.94875 -3.43579,-4.01782 -9.17697,-6.87325 -14.95101,-6.68625 -5.26865,0.17014 -9.57117,3.05421 -10.13383,6.76459 -0.2249,1.47067 0.50791,3.71964 0.71091,4.68577 0.12213,0.58877 0.65953,3.00115 2.07966,4.73799 1.21883,1.49342 3.68258,2.05777 5.94924,1.57934 1.99964,-0.42284 3.83251,-1.71242 4.86939,-2.89587 1.60376,-1.83034 0.55593,-5.36383 0.18447,-6.68625 -0.35967,-1.2761 -0.82462,0.28385 -0.89538,1.5271 -0.0278,0.49781 -0.49191,1.30053 -0.81619,1.52711 -2.07209,1.44035 -5.63001,2.0207 -5.71171,-1.94826 -0.14825,-7.0813 19.75891,-2.11757 12.63465,9.02872 -1.4513,2.26918 -4.567,2.75604 -6.79154,2.73751 -5.89028,-0.0522 -12.1756,-1.70231 -17.58323,-4.00097 -6.58686,-2.80153 -15.00154,-7.58669 -22.87377,-11.45037 -7.16974,-3.51917 -14.23251,-5.15494 -17.37265,-8.26559 -1.60881,-1.59365 -1.48667,-3.92432 -1.10595,-5.07997 0.28133,-0.85494 0.60562,-1.90952 1.47404,-3.00115 1.91121,-2.40058 4.91909,-5.44217 4.94858,-10.0555 0.0236,-3.76428 -1.60208,-8.53344 -3.68511,-10.21301 -1.5389,-1.24072 -4.55269,-1.61892 -6.5279,-2.71139 -0.77324,-0.4279 -1.02762,-1.14049 -1.50016,-1.78991 -0.62162,-0.85158 -0.81283,-2.09399 -1.36875,-3.15867 -0.85832,-1.63997 -1.5507,-3.27153 -3.13255,-4.39601 -2.13694,-1.51784 -4.95363,-1.01499 -8.58146,-3.34313 -1.517,-0.97371 -0.36893,-4.27051 -4.42213,-6.00146 -1.24746,-0.5315 -2.23128,0.2569 -3.76428,-0.6848 -0.30576,-0.18783 -0.43884,-2.43175 -2.00049,-4.18544 -1.37886,-1.54816 -4.19554,-2.56315 -4.5013,-3.29006 -0.66795,-1.5827 0.26701,-5.23917 -0.0261,-8.63368 -0.10192,-1.17755 -1.84803,-6.76459 -0.97371,-9.39681 0.55424,-1.67283 3.70111,-2.01986 6.18592,-2.18495 2.87059,-0.19205 6.82861,0.35966 11.0031,0.60562 9.62423,0.56603 20.91456,2.57999 25.63823,2.92197 1.06047,0.0775 1.8017,0.14825 2.10578,0.18447 13.99161,1.65261 31.19074,15.97441 34.45553,15.05629 1.92889,-0.5416 -6.39313,-6.86146 -7.58079,-7.58079 -1.96426,-1.19018 -9.98643,-5.42111 -16.95149,-11.60787 -7.64986,-6.79492 -14.43719,-14.94764 -15.16158,-15.47745 -1.90446,-1.38813 -10.08666,-10.80937 -14.50374,-19.03116 -1.75284,-3.26058 -3.23952,-8.74065 -4.44824,-12.52936 -2.10746,-6.60876 -5.16083,-19.53233 -5.73865,-31.98167 -0.36894,-7.94046 0.8263,-15.31151 1.15817,-18.58389 2.34078,-23.15089 14.82466,-56.77338 24.90122,-75.57122 2.74593,-5.12377 6.30637,-10.25681 9.08094,-15.13547 1.78738,-3.1435 3.00789,-6.73174 4.68577,-9.47599 1.82613,-2.9902 4.83149,-4.58301 6.31733,-6.89683 2.75519,-4.29494 4.78516,-7.18659 5.55419,-7.87055 1.22809,-1.09668 -0.8819,-1.06383 -1.97438,-0.50033 -1.40497,0.72439 -3.1216,1.8076 -3.26395,2.26413 -0.49106,1.56922 -8.24032,8.3355 -15.16158,18.32025 -0.8482,1.22387 -2.27761,1.06467 -3.34313,2.21106 -0.99477,1.06889 -1.04446,2.55641 -1.86908,3.97486 -0.77577,1.33169 -2.33236,2.58673 -3.34313,3.60593 -2.93966,2.96493 -7.37358,5.19284 -10.29219,8.08112 -2.56146,2.5362 -5.27118,4.80538 -7.31799,7.3441 -6.07642,7.53615 -11.479,12.3508 -13.81894,13.95119 -2.14368,1.46646 -3.95717,2.97251 -5.23832,4.18544 -1.13123,1.07057 -1.57597,2.23633 -2.26413,2.10577 -0.60815,-0.1154 -0.63426,-2.04597 -0.63174,-3.02726 0.007,-3.1772 0.25522,-7.37611 -0.63173,-8.39699 -0.84568,-0.97034 -2.78299,-0.65785 -3.57982,-2.36942 -1.30726,-2.80237 -0.10023,-10.1431 0.71091,-16.76702 0.61742,-5.05639 0.69407,-9.80618 1.50016,-11.42426 0.2409,-0.48348 0.70333,-2.92113 0.65784,-6.02757 -0.0396,-2.74172 -0.6191,-5.99977 0.0261,-8.89732 0.22237,-1.00235 0.59215,-1.43782 0.65785,-2.94808 0.11118,-2.51935 0.18446,-4.85761 0.0531,-6.5018 -0.21816,-2.72403 -0.5256,-3.22183 -1.39486,-2.00048 -0.76735,1.079 -3.44758,13.58562 -4.92246,25.92715 -1.41761,11.84961 -2.46208,23.28482 -2.47471,23.55857 -0.27291,5.55924 -2.95735,5.95766 -3.89568,6.10674 -0.83473,0.1314 -1.25589,0.90043 -1.86909,1.23736 -3.74997,2.05355 -3.24458,7.18743 -2.0266,13.00358 0.48854,2.33741 2.20433,5.32593 3.10644,6.34344 1.9828,2.23886 3.09212,1.35864 0.79009,8.18641 -0.10782,0.31924 -0.81367,1.88088 -2.15884,3.73817 -1.96764,2.71393 -5.29392,6.24573 -8.47617,10.79252 -2.14031,3.05843 -4.03045,7.03582 -6.2651,10.29219 -7.51425,10.94919 -14.97459,20.8497 -15.31994,20.95246 -0.13898,0.0413 -6.21035,9.68741 -10.16078,15.08241 -1.99965,2.72824 -2.90176,1.69641 -3.36925,3.23784 -0.20889,0.68901 0.29481,2.79478 0.57951,4.15932 0.18194,-0.0337 0.34619,-0.0505 0.34198,0.0792 -0.091,2.41238 2.11083,8.68759 1.7638,8.89732 -0.0421,0.0253 6.85051,16.66511 9.58128,20.55742 0.52813,0.75387 0.86758,1.16744 1.39486,2.00049 0.69575,1.10342 1.62903,3.05421 3.07949,4.58048 2.7712,2.91187 6.41672,5.45649 6.81766,6.00146 0.68648,0.93749 3.97654,5.99977 5.94923,7.71219 0.30239,0.26364 1.13038,0.95687 1.44793,1.18429 0.2308,0.16425 2.64991,1.13038 2.81669,2.13189 0.0548,0.33355 0.67385,1.63239 -0.21058,1.63239 0,-0.36051 -2.86807,-1.76716 -3.94875,-2.84279 -0.5315,-0.52813 -1.77727,-1.45467 -2.10577,-1.84298 -1.60208,-1.88677 -3.92012,-5.43711 -5.36973,-7.42328 -3.32291,-4.54847 -8.63115,-6.0899 -10.87086,-12.34489 -0.39925,-1.11354 -0.99645,-1.6324 -1.63239,-2.58 -1.07816,-1.60207 -3.1654,-4.97131 -4.6066,-8.37088 -1.35359,-3.19319 -2.08893,-6.43693 -2.50081,-7.44939 -0.5096,-1.25672 -2.35089,-9.11548 -2.63222,-11.18672 0.32765,0.50539 0.58203,0.18615 0.73702,0.39505 0.23584,0.31755 0.12045,-0.29902 -0.0531,-1.13207 -0.29312,0.0539 -0.67132,0.20889 -0.71091,0.23669 -0.0312,0.0227 -0.011,0.1971 0.0261,0.47422 -0.18615,-0.29481 -0.40346,-0.82715 -0.65784,-1.8952 -4.2166,-17.59754 -5.15999,-31.00038 -3.86957,-49.56489 0.2569,-3.70869 -0.49612,-7.12931 -0.0531,-11.0031 1.38307,-12.07451 3.38272,-23.93677 7.2127,-35.77207 5.53061,-17.09131 13.93687,-33.95183 21.37362,-49.64407 4.17028,-8.80045 7.37864,-15.84301 9.21319,-16.5834 0.33018,-0.13393 3.57982,-2.10156 6.23815,-4.47519 1.49089,-1.33169 2.38963,-3.39451 2.92197,-4.23766 1.10006,-1.74527 1.78233,-3.57477 1.78991,-3.68511 0.23753,-3.48716 -30.45372,23.40695 -31.40216,25.47988 -0.43463,0.95013 -7.41149,-0.14404 -12.37185,-0.44727 -13.15773,-0.8044 -24.12882,-6.49758 -25.82186,-21.55808 -0.84484,-7.51425 1.10006,-15.3073 2.05355,-17.21514 0.70165,-1.4016 0.68901,-2.68865 1.68462,-4.29072 2.54462,-4.09279 6.78481,-8.80635 10.02855,-12.05599 3.5099,-3.51748 7.1251,-6.17497 6.13286,-8.00194 -1.72674,-3.17467 -12.73321,10.23491 -15.76721,13.95118 -2.22201,2.71982 -5.89533,6.48326 -9.81796,9.44988 -6.99286,5.28886 -14.59724,9.44735 -14.87183,10.52887 -0.13056,0.51297 -4.36569,2.87059 -8.81815,5.817 -6.72331,4.44992 -14.85329,9.63687 -15.10935,9.87103 -0.4658,0.42621 -1.63156,0.20889 -2.10578,-0.0261 -0.93581,-0.46412 -1.11859,-1.44288 -1.52711,-2.50082 -1.04362,-2.70129 -1.13122,-6.4024 -1.15817,-7.05435 -0.55677,-13.08613 -4.66387,-28.52315 -7.58079,-43.32675 -1.26094,-6.39818 -2.74088,-12.68771 -2.89587,-18.61 -0.0539,-2.07882 -2.15884,-6.15812 -2.10577,-9.42376 0.043,-2.7055 1.88846,-4.83823 1.7638,-4.843284 -3.26901,-0.134769 -5.01849,-0.308285 -5.91471,-0.258589 z m 48.77481,70.700983 c 2.42586,-0.19121 -8.91669,10.62406 -8.97565,10.63416 -0.36725,0.059 -8.26559,7.15206 -8.26559,7.84444 -1.00319,0 -7.29946,7.94719 -7.81748,9.16012 -0.22237,0.51971 -1.64419,1.59365 -2.63222,0.79009 -0.80357,-0.65448 -0.87516,-3.018 -0.97371,-5.21222 -0.12045,-2.64654 0.65868,-5.83047 2.31635,-6.02757 0.36051,-0.0438 4.097,-2.07292 7.71219,-4.23766 3.01294,-1.80507 18.44575,-12.9362 18.63611,-12.95136 z m -33.77074,25.79575 c 0.0253,-0.002 0.0531,0.007 0.0792,0.0261 0.27628,0.20889 2.52272,3.44083 2.00049,6.44872 -0.53992,3.10392 -3.37177,6.49758 -5.5542,8.02806 -0.75302,0.52644 -7.08551,7.97499 -8.84425,9.47599 -0.25101,0.21479 -0.49528,0.0817 -0.52644,0.0261 -0.37315,-0.66037 0.52897,-3.41894 2.39553,-6.92295 1.58691,-2.97925 2.46123,-5.10187 4.00097,-7.15963 1.4454,-1.93226 2.15884,-4.24693 3.52759,-5.55419 2.05945,-1.96596 2.52946,-4.33874 2.92113,-4.36822 z m 81.51962,8.47616 c 0.4818,0.005 0.74713,0.10108 0.73702,0.34198 -0.0657,1.58186 -7.95309,7.11499 -15.53052,13.68754 -8.86194,7.68608 -17.69777,16.50085 -18.8728,17.68851 -0.26953,0.27375 -5.00247,4.27557 -10.34441,8.89732 -6.29037,5.43964 -13.52918,11.49417 -15.47744,13.42474 -1.83624,1.81855 -3.15193,3.51664 -3.60593,2.52693 -0.0817,-0.17604 -0.79009,-1.60123 -0.76314,-3.39535 0.0177,-1.22725 0.71513,-2.54294 0.92149,-4.13237 0.3723,-2.85628 1.5229,-5.96019 1.50016,-8.79204 -0.0328,-4.02792 -2.10578,-6.50263 -2.10578,-7.71219 0,-2.51514 2.04429,-4.86602 3.36924,-5.5803 7.69113,-4.14501 12.83933,-8.8173 19.24173,-12.45019 5.7075,-3.24037 11.60367,-6.92968 18.29414,-9.44988 4.28735,-1.61555 8.93606,-2.40395 13.97729,-3.4223 3.79882,-0.76819 7.21017,-1.64924 8.65895,-1.6324 z m -173.91092,27.2959 c 0.0649,8.4e-4 0.14066,0.0303 0.21057,0.0792 1.56165,1.095 2.12515,8.17967 4.31684,14.39845 1.14807,3.25637 2.81921,6.31732 3.55371,9.13401 0.48854,1.87751 0.10276,3.05927 0.10529,4.18544 0.004,2.30456 -4.01024,13.68754 -4.15933,13.68754 0,4.72536 -6.29037,24.96101 -9.97632,22.69015 -2.2675,-1.39571 2.27171,-38.44977 3.26395,-40.64147 0.657,-1.44961 0.65616,-23.57541 2.68529,-23.5333 z m 25.11179,15.84554 c 0.27543,0.008 0.48348,0.23753 0.68479,0.79009 0.0615,0.17183 -0.46579,0.44726 -0.89537,0.97371 -0.62837,0.76903 -1.34349,1.96595 -2.05355,3.18477 -1.15144,1.97606 -2.79732,3.96391 -3.94875,5.94924 -1.43362,2.47302 -2.32731,4.36653 -2.7114,4.31684 -0.0699,-0.009 -1.09584,0.54413 -2.0266,-0.36893 -1.24914,-1.22472 -1.02593,-2.64739 -1.10595,-3.73818 -0.0817,-1.08995 0.29649,-2.69286 1.55322,-4.13237 1.94826,-2.23296 4.76579,-3.63625 7.23881,-5.00164 1.73011,-0.95349 2.65665,-1.99206 3.2648,-1.97353 z m 225.68603,1.02678 c 0.27965,-0.0463 0.44727,0.12971 0.44727,0.63173 -0.0514,0 -6.94906,8.48712 -6.94906,8.71285 -0.19541,0 -7.42328,7.70293 -7.42328,8.31782 -0.8541,0 -9.11126,10.54066 -9.58127,11.31896 -0.2847,0.47085 -0.46243,1.82444 -2.00049,2.10577 -0.44979,0.0826 -1.079,0.24091 -1.39487,-0.10528 -0.52897,-0.57783 -0.62162,-1.89099 -0.71091,-2.39553 -0.33355,-1.88088 0.72945,-3.46864 1.079,-4.42213 0.95181,-2.60611 7.39633,-6.52959 7.39633,-7.39633 0.67637,0 5.65948,-4.13321 5.65948,-4.79106 0.47169,0 8.26559,-7.11752 8.26559,-7.39632 0.70417,0 3.99929,-4.37833 5.21221,-4.58048 z m -156.09016,3.97486 c 0.73028,0.0194 2.45112,2.5623 4.86939,5.05386 1.32496,1.36538 3.253,2.38542 4.18544,3.94875 1.55322,2.60358 1.29379,5.88943 -2.0266,8.81814 -2.0047,1.76633 -5.56683,3.12834 -8.31781,5.79088 -3.55708,3.44168 -7.20091,8.02722 -10.58194,11.45037 -4.34801,4.40023 -8.11903,7.22954 -9.05484,6.92294 -0.54581,-0.17941 -0.15835,-3.22436 0.21058,-5.47501 0.57025,-3.48969 2.89586,-9.65203 4.44824,-12.60854 2.37363,-4.519 5.71171,-8.9605 8.52839,-12.87134 4.26209,-5.91976 7.12847,-10.7403 7.6069,-11.0031 0.0396,-0.0227 0.0834,-0.0286 0.13225,-0.0269 z M 219.364,262.98318 c 0.72944,-0.16509 1.0352,1.14554 1.15818,1.39487 0.2847,0.57614 0.89201,0.84905 0.76313,2.13188 -0.41189,4.10205 -3.43746,7.80232 -5.23832,9.16013 -0.27628,0.20805 -1.25673,-0.73113 -0.76314,-1.60545 0.27712,-0.49359 2.41238,-9.94178 3.73818,-10.92392 0.12297,-0.091 0.23753,-0.13477 0.34197,-0.15751 z m 204.65524,21.53113 c 0.13814,-0.0859 1.74696,0.38241 0.52645,4.31684 -0.16257,0.5256 0.23332,1.88088 -0.60562,3.07949 -0.80694,1.15059 -2.32309,2.01396 -3.73818,3.47453 -1.6046,1.65514 -3.15697,3.94622 -4.68577,5.97534 -4.50467,5.97451 -9.07083,12.37185 -11.08143,12.37185 0,-0.96107 5.15494,-8.71285 5.65948,-8.71285 0,-0.97455 9.06073,-13.53003 9.13401,-13.53003 8.5e-4,-0.36051 4.56448,-6.83534 4.79106,-6.97517 z m -91.73262,6.68626 c 0.203,-0.0219 0.34198,0.0573 0.34198,0.28975 1.26094,0 0.45148,0.44727 1.71073,0.44727 0,1.7579 2.50756,21.79477 3.07949,21.79477 0,6.4243 3.47453,11.21031 3.47453,17.87298 -0.61152,0 -1.01415,3.47453 -2.18496,3.47453 0,2.51009 -11.31896,4.87782 -11.31896,5.68559 -1.38728,0 -13.05581,5.1103 -13.05581,5.23833 -1.06889,0 -10.44969,4.10458 -10.44969,4.34295 -2.5522,0 -5.09682,2.63222 -8.26559,2.63222 0,0.89959 -4.63776,0.42116 -5.65949,0.42116 0,-1.41256 -0.42115,-1.74864 -0.42115,-3.50064 -0.92738,0 -3.48295,-28.76995 -0.86842,-28.76995 0,-2.05439 1.17671,-7.39632 3.02726,-7.39632 0,-1.38729 8.68674,-3.75081 8.68674,-4.79106 0.81115,0 6.97517,-3.96981 6.97517,-4.36991 0.91896,0 8.26559,-4.73968 8.26559,-5.23832 2.43175,0 5.08587,-3.89569 7.42328,-3.89569 0,-0.6292 6.38892,-3.07948 7.39633,-3.07948 0,-0.14993 1.23314,-1.0908 1.84297,-1.15818 z m -63.59441,15.71414 c 0.59888,-0.25522 -2.96325,4.27556 -3.31702,4.23766 -0.11455,-0.0126 -5.51713,5.59631 -6.29121,6.08064 -0.99477,0.62331 -4.27809,3.03315 -4.81717,3.89568 -0.46075,0.73786 -1.63914,1.62734 -2.36942,2.50082 -0.78335,0.9358 -1.1169,1.83034 -1.7638,1.55322 -0.41694,-0.17857 -0.5854,-1.14891 -0.84231,-2.18495 -0.4439,-1.7916 0.14488,-1.91542 -0.26364,-2.94809 -0.5972,-1.50942 -2.48987,-3.56044 -5.87006,-4.02708 -0.65448,-0.0901 -1.71073,-0.59552 -1.94826,-0.97371 -2.98515,-4.78348 3.24121,-4.63945 5.65948,-5.65949 1.82697,-0.76987 4.22166,-0.43294 6.76459,-0.42115 2.7055,0.0118 12.03998,-0.76819 15.05882,-2.05355 z m 52.67049,5.36972 c -1.07731,0.0303 -2.57915,0.65701 -4.15933,1.8952 -1.65092,1.29379 -3.03989,2.24644 -3.10643,4.50131 -0.032,1.1009 0.0926,3.55707 0.97371,4.5013 1.32242,1.41761 3.73143,1.7419 5.7117,-0.18446 2.04429,-1.9887 3.13002,-3.9496 2.94809,-6.39651 -0.1095,-1.46814 -0.47338,-4.07341 -1.92131,-4.29072 -0.13477,-0.0202 -0.29229,-0.0303 -0.44643,-0.0261 z m -87.09992,3.18478 c 0.84231,0.0884 2.20349,1.39823 0.84231,3.50064 -0.46579,0.71933 -1.80001,0.75471 -2.31635,1.36875 -0.52981,0.62921 -1.44288,2.83016 -1.60544,4.71189 -0.16678,1.94068 0.43632,3.56886 0.9476,4.21155 0.8819,1.111 2.10577,2.59094 3.29006,3.29006 1.04362,0.61573 2.12262,0.4599 2.0266,1.36875 -0.0564,0.53571 -0.32008,1.88425 -1.10595,1.31653 -0.56941,-0.41104 -1.32748,-1.9112 -2.05356,-2.6061 -0.56434,-0.54077 -1.1169,-0.39842 -1.50015,-0.0531 -0.68733,0.61994 1.51784,1.90278 1.21124,3.84346 -0.30828,1.94068 -3.12244,4.54342 -3.76428,5.05386 -0.50707,0.40263 -1.11943,0.42874 -1.47404,0.79009 -0.75808,0.76903 -0.64943,1.83287 -0.34198,2.18495 0.42199,0.48601 1.66777,0.80104 1.81602,1.52711 0.23416,1.16155 -0.53655,2.78047 -1.42182,4.15933 -1.17334,1.82613 -3.23447,2.99441 -4.84328,4.52741 -1.89689,1.80676 -3.05001,3.50317 -4.50131,3.13255 -1.15986,-0.29649 -2.06282,-1.97858 -2.42164,-3.5537 -0.91728,-4.02709 -0.57951,-9.77922 0.89537,-15.29298 1.53638,-5.7513 4.6504,-10.603 5.44891,-11.71317 1.76464,-2.45365 5.27286,-6.62561 7.92277,-9.29152 1.29547,-1.3039 2.11925,-2.56315 2.94892,-2.47639 z m 76.22907,2.36942 c -1.76801,0.26869 -6.45294,3.26142 -7.02824,3.73817 -0.85578,0.70922 -2.174,0.84821 -2.36942,1.73768 -0.13308,0.60984 0.16257,1.41087 0.23669,2.21107 0.0842,0.90548 -0.0303,1.81602 0.18447,2.31635 0.17015,0.39673 3.02473,-0.80272 5.47501,-2.21106 2.03081,-1.1666 3.73397,-2.53536 3.76429,-2.63222 0.51128,-1.62313 0.44474,-3.57224 0.39504,-4.84328 -0.011,-0.29313 -0.25016,-0.37904 -0.65784,-0.31671 z m -109.55338,4.42212 c 0.74376,-0.16509 3.14603,11.9507 3.29006,11.9507 0,4.48109 7.7998,24.00584 11.31897,24.00584 0,8.04574 -12.60854,9.15591 -12.60854,13.95118 -5.61231,0 3.89568,11.77886 3.89568,6.94906 2.18074,0 12.63465,-6.45799 12.63465,-4.76411 -0.71343,0 -1.02762,1.28958 -1.73768,1.28958 0,1.00403 -9.60739,3.08959 -9.60739,4.81717 -3.04327,0 -7.83012,6.97517 -13.0297,6.97517 0,-5.19368 5.13641,-63.67359 5.63337,-63.67359 0,-1.0293 0.0724,-1.47067 0.21058,-1.501 z m 95.28633,3.57982 c -0.91391,0.0876 -2.03671,0.98803 -2.8428,1.97438 -1.12701,1.37886 -1.41929,4.45582 0.23669,7.08046 0.52223,0.82883 1.28031,0.89706 1.84298,0.97371 0.93665,0.12634 1.66946,-0.26786 2.44775,-1.079 0.454,-0.47254 0.96529,-0.72692 1.18429,-1.86909 0.47085,-2.46207 0.65868,-6.47315 -2.50082,-7.05435 -0.12045,-0.0227 -0.23753,-0.0387 -0.36809,-0.0261 z m 56.80371,4.39518 c 0.84568,-0.0531 1.84044,0.13224 3.02726,0.55255 1.25925,0.44643 1.43782,0.43211 2.34246,1.78991 0.50623,0.75808 0.77914,2.01565 0.39505,3.02726 -0.40768,1.07648 -1.47826,1.91289 -1.13207,2.92198 0.55593,1.61471 2.3551,2.76362 3.26395,4.08015 0.85326,1.23567 2.16306,1.33759 2.36942,2.23717 0.58625,2.56989 -1.52205,4.87024 -3.8165,5.47502 -2.95062,0.77745 -6.89263,-0.56603 -6.92295,-2.0266 -0.0581,-2.85122 -13.26975,3.06517 -13.84589,3.39535 -1.00404,0.57614 -8.68675,3.99087 -8.68675,4.76411 -0.39841,0 -0.97876,0.26617 -1.23735,0.55255 -0.13056,0.14404 -0.88358,0.98214 0.15835,1.23736 1.17587,0.28638 3.04664,0.21226 5.10693,0.18446 2.33404,-0.0312 4.89214,-0.0691 6.92295,-0.97371 1.38223,-0.61488 2.27423,-1.8076 3.02726,-2.89586 0.55424,-0.80356 1.26599,-1.29968 1.23735,-2.44775 -0.0413,-1.64503 2.2018,-2.33741 4.21155,-2.34247 2.13863,-0.003 2.67181,1.24578 4.05404,3.21173 0.57951,0.82294 0.46917,2.87902 -0.15835,4.13237 -0.43042,0.85748 -1.30222,0.96866 -1.57934,1.55322 -0.89621,1.88678 0.56351,3.24879 1.65851,4.68578 0.657,0.86252 1.20619,2.01649 0.97371,2.57999 -0.29565,0.71596 -0.6073,1.55996 -1.31653,1.94826 -1.10342,0.60647 -3.18814,1.00067 -4.68577,0.44727 -2.64148,-0.97455 -4.25788,-4.02877 -4.89635,-5.47501 -0.1634,-0.37062 -1.61639,-0.10782 -3.71121,-0.1314 -5.83637,-0.0649 -18.02123,0.0708 -23.55858,-0.34198 -1.29378,-0.096 -2.65411,0.53739 -4.05403,1.18429 -1.68799,0.77997 -3.45516,1.6863 -5.26444,2.7375 -2.74256,1.59281 -5.70581,2.84617 -7.73915,3.5276 -0.60983,0.20384 -0.32176,1.60544 -0.52644,2.97419 -0.29818,1.99881 -1.51363,4.75569 -2.39553,4.08015 -0.33103,-0.25269 -1.41424,-4.2107 -2.76362,-7.52856 -0.8103,-1.9887 -2.47471,-3.44084 -2.00049,-4.55353 0.40431,-0.94928 1.65177,-0.844 2.52693,-0.18447 0.5256,0.39673 0.49949,1.17587 1.23736,1.50016 1.55237,0.68143 4.36906,-0.27797 6.60708,-1.36876 1.01667,-0.49696 2.10746,-0.68311 2.57999,-1.34264 0.406,-0.56772 0.52055,-1.03773 -0.0531,-1.26346 -1.93816,-0.76145 -8.68927,-0.30661 -12.68772,-0.28976 -1.59702,0.008 -2.43512,-3.11907 -2.44775,-3.81651 -0.0194,-0.95602 1.99711,-0.36219 4.86939,0.0261 6.32744,0.8541 15.0066,1.19271 21.03164,0.18446 1.1725,-0.19541 5.53482,-2.91355 10.76557,-5.68559 0.9796,-0.51802 11.67273,-5.8608 17.89909,-8.94955 2.25149,-1.11858 3.85778,-1.81854 4.02708,-2.42164 0.24427,-0.87263 0.0463,-3.00789 0.55256,-5.02775 0.89622,-3.57392 2.09566,-5.76308 4.63439,-5.92396 z m -30.66514,6.29121 c -3.56634,0.003 -1.88172,3.69353 -0.86843,3.71122 1.16408,0.0202 1.83961,-0.0817 2.15885,-1.13207 0.33945,-1.11606 -0.13309,-2.47807 -0.52645,-2.52693 -0.28723,-0.0345 -0.52644,-0.0522 -0.76397,-0.0522 z m -7.10742,0.86842 c -1.3418,0.0952 -1.64082,0.86253 -1.81602,1.52711 -0.19204,0.7286 -0.0404,2.07293 0.47422,2.68529 0.5812,0.69322 1.60039,0.59804 2.34247,0.36893 0.63426,-0.19795 1.45719,-0.51297 1.44793,-2.23718 -0.003,-0.52476 -0.008,-2.03334 -0.73702,-2.18495 -0.71512,-0.14993 -1.26431,-0.19036 -1.71158,-0.1592 z m -12.1082,5.13304 c -0.37652,0.0152 -0.76482,0.16257 -1.13207,0.47422 -0.55255,0.46748 -0.31671,1.26515 -0.34198,1.81602 -0.0825,1.80002 0.12382,2.69287 1.86909,2.52693 0.74713,-0.0716 1.51532,-0.31418 1.57933,-1.92131 0.0185,-0.47253 0.0733,-1.49341 -0.39504,-2.10577 -0.36388,-0.47591 -0.95181,-0.81452 -1.57933,-0.79009 z m -4.29073,3.55371 c -0.53318,-0.0101 -1.34601,0.57192 -1.02678,2.55304 0.20047,1.25167 2.47892,0.61404 2.26413,-1.42182 -0.008,-0.0733 -0.47506,-0.89201 -1.02677,-1.10595 -0.0607,-0.0228 -0.13477,-0.0236 -0.21058,-0.0253 z m -1.15818,32.48116 c 0.39841,-0.048 1.57681,1.33927 2.86891,3.36924 1.6265,2.55472 2.53114,6.72332 4.34295,9.97632 1.32495,2.38037 2.71392,5.34951 3.9218,6.60708 0.12466,0.12972 2.25149,2.92029 3.57981,3.60593 0.28302,0.14488 0.43295,-1.24578 1.97438,-1.02678 1.80339,0.25775 2.00133,0.69407 2.18495,1.21124 0.34872,0.98551 -0.75723,2.30625 -0.76313,3.55371 -0.008,1.44119 0.46243,3.15361 -0.60562,2.92197 -0.35798,-0.0775 -3.55118,-2.17147 -5.26444,-5.5803 -1.3578,-2.70129 -3.06011,-5.02943 -4.21155,-7.2127 -1.9988,-3.78871 -3.11065,-7.05098 -4.31684,-9.5021 -1.06468,-2.16137 -2.28856,-3.65226 -2.86891,-4.89635 -0.98045,-2.10072 -1.15228,-2.9902 -0.84231,-3.02726 z m -66.12134,3.94875 c 0.5256,-0.14656 0.17015,3.62614 0.0531,6.37039 -0.0842,1.94826 -0.42874,3.79882 -0.57951,6.18592 -0.3403,5.40595 0.32597,11.37793 1.5271,16.18836 0.7783,3.11739 2.15295,6.61045 1.7638,6.86988 -0.78587,0.52476 -1.26431,-0.47085 -2.42164,-2.81668 -1.1944,-2.42164 -3.05843,-6.31396 -3.50064,-14.08258 -0.15835,-2.79142 -0.2906,-8.84931 1.00066,-13.1611 1.18682,-3.97149 1.84129,-5.46743 2.15716,-5.55419 z m 121.63547,12.71383 c 0.27881,-0.027 0.67132,0.13645 1.10596,0.50033 0.87937,0.73533 2.07629,2.75014 3.26395,4.55353 2.65917,4.03887 3.95043,7.28261 6.21203,11.68705 2.0485,3.98918 3.68343,7.81411 5.44891,11.66094 0.86084,1.87835 2.27339,3.73733 2.79057,5.65948 1.04699,3.89905 -2.18074,2.61874 -4.02708,0.0261 -0.61489,-0.86336 -0.68901,-2.10325 -0.9476,-2.55304 -0.73702,-1.27863 -1.04615,-2.85964 -1.73769,-4.39602 -1.83792,-4.08351 -3.9319,-8.61683 -5.42279,-12.13431 -1.85898,-4.3876 -3.67247,-7.63386 -4.21155,-8.42311 -3.11739,-4.55942 -3.31112,-6.50094 -2.47471,-6.58096 z m -5.26443,0.42115 c 0.59382,-0.008 2.66591,3.66742 4.47519,7.3441 2.64401,5.37478 6.00146,11.90437 6.68626,13.26639 2.25907,4.49625 4.04982,8.94449 5.18526,11.68705 1.83539,4.4356 4.41539,6.82271 0.9476,7.84443 -0.58036,0.17099 -2.38711,-3.56465 -4.02709,-7.50161 -2.73582,-6.5616 -5.69907,-14.64019 -5.97535,-15.16158 -1.05204,-1.98533 -9.15085,-15.09757 -7.39632,-17.42571 0.0244,-0.0354 0.0649,-0.0531 0.10445,-0.0531 z m -9.47599,0.71007 c 0.30744,-0.0699 0.67806,0.18783 0.9476,1.00066 0.47422,1.4294 -0.75471,1.00993 -0.21058,3.31702 1.03688,4.40275 3.36924,12.02398 3.4223,12.26656 0.19289,0.87685 0.77409,3.37261 1.05289,6.31733 0.21058,2.21948 0.0674,4.65881 0.44727,7.08046 0.53487,3.40209 1.97943,7.06782 2.23717,9.1079 0.25775,2.04007 -0.68479,2.44269 -1.71073,1.13206 -0.95855,-1.22388 -1.84297,-5.29308 -2.65833,-10.37136 -0.61489,-3.83083 -0.82041,-8.69264 -1.60544,-13.21416 -0.69407,-3.9875 -1.88256,-7.78127 -2.26413,-10.71335 -0.33524,-2.5842 -0.22827,-4.37243 -0.21058,-4.92246 0.016,-0.5256 0.24511,-0.93075 0.55256,-1.00066 z m 22.39955,0.13224 c 0.63763,-0.10192 1.93731,0.71596 3.18477,1.84298 1.4631,1.32074 2.12347,3.1435 2.94809,4.34295 0.24511,0.35545 3.63794,9.17275 6.86988,15.92471 2.21106,4.62007 4.52573,7.68103 4.42213,8.05501 -0.81704,2.94051 -3.23279,1.87751 -4.23766,-0.0261 -0.36472,-0.68732 -0.65027,-1.94826 -1.21125,-3.13255 -1.84802,-3.90327 -4.22924,-9.98222 -6.68625,-15.39827 -1.75117,-3.86031 -4.14838,-6.87662 -5.13304,-9.08095 -0.63931,-1.4294 -0.69322,-2.18579 -0.39504,-2.44775 0.0632,-0.0556 0.1474,-0.0657 0.23837,-0.08 z m 5.68559,0.23669 c 0.0505,-0.0109 0.11961,-0.003 0.21058,0 0.61236,0.0169 2.10325,-0.0682 3.21173,0.71091 0.63847,0.45064 2.15715,2.43849 3.8165,5.21221 1.88088,3.14351 3.97992,7.27841 5.94924,11.10839 3.16877,6.16571 5.73698,11.6323 3.34313,11.60788 -0.0438,-8.5e-4 -2.01312,-0.0177 -3.26395,-2.0266 -0.94339,-1.51363 -1.18513,-3.68427 -2.05355,-5.42279 -2.51009,-5.01849 -9.1955,-12.07031 -10.52888,-18.37331 -0.47338,-2.23465 -1.03773,-2.74088 -0.6848,-2.81669 z m -32.06,0.0792 c 2.14957,0.22321 1.53468,4.18207 1.6585,5.42279 0.34198,3.42483 1.16071,8.46437 1.57934,10.79252 0.80356,4.47603 1.2045,7.95141 1.81602,10.37136 1.03856,4.113 2.90765,6.41672 1.57933,10.68723 -0.19289,0.61657 -3.77271,-2.35088 -7.2127,-4.84328 -4.20819,-3.04832 -6.28195,-4.37917 -6.97517,-6.68626 -0.48433,-1.60881 -0.0118,-7.68439 -0.31587,-13.50307 -0.24848,-4.74221 -1.42772,-9.41366 -0.71091,-10.60805 1.11269,-1.85056 6.33165,-1.39487 8.10723,-1.60545 0.16931,-0.0219 0.33019,-0.043 0.47423,-0.0278 z m 9.00176,0.15751 c 0.30323,-0.28133 3.75671,7.83348 7.39633,16.24058 2.69371,6.22551 6.22299,12.97326 8.52839,18.21496 2.09903,4.77168 3.09886,8.3355 3.21173,8.76507 0.21647,0.8221 0.0674,3.11908 1.23735,5.00164 1.91204,3.08033 3.14687,5.44891 1.36875,5.44891 0,-0.44643 -5.63337,-2.64991 -5.63337,-3.47453 -0.36556,0 -5.99219,-4.36654 -6.10674,-4.36991 -0.26196,-0.008 -1.5229,-2.59094 -2.50082,-7.05434 -0.97877,-4.46341 -1.65935,-10.82453 -3.00115,-16.71481 -2.15379,-9.4583 -4.90983,-18.75319 -4.52742,-22.00535 0.004,-0.0261 0.0177,-0.043 0.0269,-0.0522 z m 31.9025,1.28958 c 2.07208,-0.14488 3.78365,2.93629 5.65948,6.21203 0.0741,0.12972 1.10679,1.5726 1.86909,3.44842 0.67216,1.65514 1.01751,3.65478 1.9213,5.42279 0.92486,1.80929 4.2941,5.53566 3.89569,7.31799 -0.44979,2.01565 -1.99712,1.18092 -3.21173,-0.9476 -1.56164,-2.73582 -2.79142,-7.2666 -2.86891,-7.00212 -0.15414,0.52476 -5.23495,-7.72061 -5.23832,-7.84443 -0.0303,-1.08574 -0.77661,-1.51027 -1.21125,-2.31636 -0.89537,-1.66356 -1.56753,-2.6777 -1.44793,-3.39535 0.0548,-0.32597 -0.08,-0.84568 0.63258,-0.89537 z m -52.45992,0.89537 c 0.27797,-0.0623 0.64353,0.22237 0.79009,0.92149 0.20384,0.9695 -0.0522,2.87396 0.21058,4.65882 0.36051,2.45533 0.25859,5.39752 0.47422,7.81748 0.13308,1.49173 -0.10192,3.00536 -0.21058,4.26461 -0.22068,2.53872 -0.6629,4.05825 -1.6324,2.29024 -0.26785,-0.49022 -0.0699,-1.91204 -0.42115,-2.89586 -0.56351,-1.57596 -0.33356,-3.11402 -0.28976,-4.68577 0.0548,-2.01986 0.0337,-4.06499 0.10529,-6.00146 0.0716,-1.93142 0.20805,-3.91337 0.63174,-5.89617 0.0564,-0.2687 0.1752,-0.43547 0.34197,-0.47338 z m 59.35675,0.86842 c 3.11823,-0.0211 13.41211,3.34734 13.89812,4.23767 0.0118,0.0227 -2.17906,0.88021 -4.15933,1.97437 -1.92215,1.06131 -2.71561,2.19001 -3.6851,2.34246 -1.63324,0.25859 -3.83167,-1.38391 -4.97469,-3.39535 -0.75808,-1.33422 -0.60983,-2.97419 -1.15817,-3.79039 -0.28218,-0.41947 -0.71513,-1.3637 0.0792,-1.36876 z m -63.48912,1.13207 c 0.29144,-0.12298 0.67132,2.59263 0.6848,2.76362 0.17436,2.19169 0.0581,3.71122 0.0261,6.05452 -0.0101,0.68985 -0.57951,1.35359 -0.31587,2.23718 0.059,0.19878 0.30829,4.35811 -0.84231,1.47404 -0.47253,-1.1826 -0.0615,-3.47706 -0.10529,-4.02708 -0.15498,-1.90699 -0.46664,-3.53349 -0.34197,-5.07998 0.0859,-1.05794 0.49275,-2.07292 0.76313,-3.18477 0.0362,-0.15077 0.0893,-0.21984 0.1314,-0.23753 z m -40.29948,8.76508 c 4.11047,0.11034 9.44061,1.24325 11.05532,1.63239 4.18291,1.00741 7.8099,2.81669 9.97632,3.31702 1.05457,0.24343 2.36015,1.29632 4.60659,2.18495 3.07696,1.21714 7.28009,2.48398 9.18623,4.08015 2.04513,1.71158 1.46562,3.48633 -0.73702,2.92198 -0.48685,-0.12382 -6.96422,-2.17401 -14.26705,-4.44824 -3.02473,-0.94255 -6.55233,-1.85308 -9.58127,-2.76362 -3.34145,-1.00488 -7.32557,-0.98214 -10.16079,-2.0266 -7.52014,-2.77373 -5.8212,-4.63018 -1.7638,-4.86939 0.52392,-0.0337 1.09838,-0.0447 1.68547,-0.0286 z m 118.89712,0.73702 c 0.35293,0.0152 0.641,0.18194 0.79009,0.57951 1.70399,4.55858 -4.54848,9.33279 -5.29055,8.50228 -1.50942,-1.68884 -3.24627,-3.05843 -2.15884,-4.89635 0.79429,-1.34096 2.31045,-2.41828 2.79057,-2.58 1.06889,-0.35966 2.80995,-1.6484 3.86873,-1.60544 z m -136.61175,0.1314 c 0.28555,0.006 0.55761,0.0295 0.84231,0.0792 0.9476,0.16677 2.76615,0.37819 3.05338,1.26346 0.13477,0.41779 0.78503,1.49173 0.0261,2.00049 -0.28891,0.19373 -2.36689,0.0918 -3.55371,0.23669 -2.92113,0.35882 -5.88943,0.82041 -6.86988,1.05288 -1.89688,0.44811 -3.40883,1.23736 -4.52742,1.60545 -0.7168,0.235 -1.31484,0.18783 -1.57933,0.10529 -0.57108,-0.17605 -0.66542,-0.63847 -0.28975,-0.73703 4.14416,-1.08068 8.60925,-5.69317 12.89829,-5.60641 z m 167.27773,2.02744 c 1.91289,-0.0741 3.41052,0.12803 3.89569,0.76313 0.69827,0.91307 0.3007,2.43849 0.60562,4.00098 0.99224,5.10355 1.05036,12.49314 0.57951,16.13529 -0.0497,0.38409 -0.57446,1.24493 -1.50016,1.65851 -1.44624,0.64521 -3.67837,0.84062 -5.3175,1.50015 -3.34818,1.35107 -5.63337,2.67012 -7.29104,3.68511 -2.80994,1.72252 -5.44385,4.27472 -5.92228,4.00097 -1.0731,-0.61404 -0.34282,-2.4427 -0.31587,-3.84346 0.0834,-4.38423 0.6629,-9.44061 1.18429,-13.21416 0.19879,-1.44625 1.85982,-10.68639 3.05338,-11.79234 1.78317,-1.6543 4.54679,-2.09314 7.26492,-2.50082 1.30895,-0.19458 2.61453,-0.34956 3.76344,-0.39336 z m -220.50162,6.15895 c 2.23128,-0.13477 8.81983,2.6339 10.73946,3.81651 2.75519,1.69809 5.10355,4.09868 7.44939,6.13286 2.19337,1.90278 4.92414,4.66555 7.65996,6.84377 2.0384,1.62313 5.00248,2.96072 6.39651,3.8165 1.04952,0.64606 0.82546,1.0032 0.73702,1.10596 -0.30576,0.34871 -4.90477,-1.88846 -12.2135,-6.23815 -4.99321,-2.97083 -9.79606,-6.13286 -10.58194,-6.60708 -2.99694,-1.80676 -6.34428,-2.53114 -8.39699,-3.84346 -1.3637,-0.87011 -2.20517,-1.68631 -2.34246,-1.92131 -0.51465,-0.8819 -0.39168,-1.82613 -0.97371,-1.81602 -1.47741,0.0278 -2.55978,-0.0994 -3.10644,-0.0531 h -0.0261 c -0.0615,0.0109 -2.88828,0.36809 -4.84329,1.42182 -1.92299,1.0352 -3.19319,2.50924 -3.15866,2.73751 0.12635,0.83978 1.21545,1.32243 1.97438,1.97437 1.35106,1.15986 2.80826,2.28856 3.94875,3.00115 2.93882,1.83624 6.44535,3.98497 9.63434,6.15982 7.72735,5.27033 14.37402,10.87422 15.0824,11.37118 5.62579,3.95212 11.95575,7.05435 11.81845,8.89733 -0.0564,0.75723 -16.65583,0.86421 -18.39942,0.84231 -4.99574,-0.0649 -9.01019,-1.32664 -17.24124,-5.34362 -3.89821,-1.90194 -9.00598,-5.41942 -11.71317,-10.26607 -2.77878,-4.97469 -1.9112,-10.44465 0.97372,-14.95101 0.82714,-1.29379 1.31653,-2.38374 2.39553,-3.29006 0.69153,-0.58035 1.64503,-1.31148 2.8689,-1.65851 1.05121,-0.29818 3.21847,-0.33945 4.05404,-0.57951 l 2.15884,-0.63173 c 0.28302,-0.10698 0.8002,-0.11793 1.42182,-0.23669 1.0849,-0.21058 2.41827,-0.60815 3.68342,-0.6848 z m 61.25195,2.9742 c 0.3344,-0.0556 0.75471,0.15498 1.15818,0.18446 2.09314,0.1533 1.73094,0.57446 1.78991,1.94827 0.0548,1.26683 -0.32851,1.51194 -1.10596,1.60544 -0.76482,0.0918 -1.57933,0.29818 -1.71073,0 -0.45822,-1.03183 -1.11353,-2.92366 -0.42115,-3.57982 0.0952,-0.0901 0.17772,-0.13898 0.28975,-0.15835 z m -8.15946,0.0269 c 0.22995,-0.005 0.47928,0.0952 0.6848,0.47422 0.33103,0.61236 0.2131,1.61387 0.26364,2.63222 0.0387,0.78419 0.56688,1.30137 0,1.8952 -0.56098,0.58793 -2.1361,0.39336 -4.71188,0.97371 -0.62752,0.14151 -0.33018,0.37146 -0.97371,0.44727 -1.66356,0.19373 -4.13743,-0.49191 -5.13304,-1.73769 -0.61994,-0.77408 -0.45232,-1.88088 -0.18446,-2.86891 0.21731,-0.79767 1.28115,0.70333 2.65833,1.8952 1.82781,1.58186 2.77962,2.75267 4.05404,0.97371 0.59298,-0.82715 1.54479,-1.02004 1.73768,-1.52711 0.0118,-0.0295 0.027,-3.06853 1.02678,-3.05337 0.13729,0.002 0.34619,-0.10024 0.57782,-0.10445 z m 17.42487,0.84231 c 0.38578,-0.10529 1.00319,0.38157 1.73769,0.6848 0.65194,0.26954 1.44287,0.17941 1.84297,0.73702 0.62331,0.87263 0.48012,2.26497 -0.47422,2.86891 -0.56687,0.35798 -1.00572,-0.24511 -1.6324,-0.39504 -0.55171,-0.1314 -1.29631,0.23163 -1.57933,-0.23669 -0.35798,-0.59046 -0.12466,-1.55322 -0.23669,-2.10578 -0.0876,-0.42958 -0.0446,-1.26346 0.18447,-1.47404 0.0438,-0.0421 0.10276,-0.0649 0.15751,-0.0792 z m 9.55517,2.55304 c 0.0489,-0.0211 0.0977,-0.0101 0.15835,0 1.28958,0.21395 1.10006,-0.0918 2.55304,0.76314 0.74629,0.43884 0.61405,1.42434 0.36893,2.26413 -0.20047,0.68564 0.73534,0.92148 -2.00048,0.92148 -1.33338,-8.4e-4 -1.8135,-3.62783 -1.07984,-3.94875 z m 11.00225,3.57982 c 0.24932,-0.008 0.47001,0.0463 0.60562,0.28976 0.20637,0.37145 -0.0834,1.079 -0.15835,1.7899 -0.15415,1.44625 -1.6762,2.0923 -2.31636,0.84231 -0.51465,-1.00487 -0.29143,-1.94657 -0.21057,-2.42164 0.0825,-0.48854 0.6351,-0.40009 1.28957,-0.42115 0.25522,-0.008 0.54077,-0.0708 0.79009,-0.0792 z m 94.3918,1.44793 c 0.51549,0.0177 1.5111,1.95585 2.39553,3.44842 0.42789,0.72354 1.77053,2.5463 1.5271,3.13255 -0.0691,0.16425 0.34367,0.67975 -0.15835,0.50033 -0.22153,-0.0783 -0.62668,0.21395 -0.8162,0.1314 -0.82125,-0.35292 -1.19187,-1.13459 -1.81602,-1.89519 -0.49191,-0.60057 -1.29126,-1.28368 -1.42182,-2.76362 -0.16678,-1.88257 -0.0202,-2.56568 0.28976,-2.55389 z m -87.36356,0.57867 c 0.65531,-0.0379 1.15143,0.26617 1.34264,0.79009 0.12382,0.34029 -0.0935,0.88189 -0.0792,1.26346 0.0126,0.34535 0.30071,0.97708 0.23669,1.15818 -0.13224,0.36977 -0.7008,0.0707 -0.9476,0.0792 -1.32495,0.0463 -1.34348,-0.21647 -1.42182,-0.79008 -0.23921,-1.74527 -0.0893,-2.24897 0.15836,-2.34247 0.24764,-0.0935 0.49191,-0.14487 0.71091,-0.15835 z m -53.25001,1.36875 c 0.77072,0.0328 1.39992,0.57446 1.68463,0.89538 0.34534,0.39083 0.88779,1.17334 0.79008,1.81602 -0.0665,0.44137 -0.58962,0.34535 -0.84231,0.76313 -0.45063,0.74545 -0.72607,1.93395 -0.97371,2.34247 -0.14825,0.24511 -0.42873,-0.22069 -0.84231,-0.18447 -0.79177,0.0691 -1.98027,0.73534 -2.31635,0.47422 -0.26196,-0.20215 -0.67638,-0.673 -1.23735,-1.18429 -1.68378,-1.53469 -4.72031,-3.63878 -4.26462,-3.89568 0.63173,-0.35546 1.67198,0.67974 3.00115,1.13206 0.48264,0.16425 1.61471,0.27291 2.63222,-0.1314 0.64942,-0.26027 0.94002,-1.55995 1.55322,-1.84297 0.28217,-0.13056 0.55845,-0.19542 0.81535,-0.18447 z m 79.59831,0.97371 c 0.3285,-0.0446 0.79009,-0.008 1.28958,0.1314 1.25251,0.34788 2.63221,1.42435 2.76361,1.47405 0.55256,0.20468 2.64991,1.27525 4.23767,3.00115 1.10342,1.19776 1.73684,2.64401 2.26413,4.00097 0.3605,0.92991 0.83051,1.84297 0.76313,2.52693 -0.0724,0.72018 -0.0615,2.07882 -1.05289,2.29024 -1.54311,0.33019 -4.16017,-1.61218 -6.05452,-4.55353 -2.26076,-3.50906 -3.47706,-7.85201 -4.05404,-8.10723 -0.85326,-0.37736 -0.70333,-0.68985 -0.15667,-0.76398 z m -17.34569,0.50034 c 0.52728,-0.0438 1.0234,0.12129 1.23735,0.47422 0.24343,0.40346 0.0699,1.37633 -0.28975,2.79057 -0.14657,0.57614 -1.78991,-0.52476 -2.15885,-0.84231 -0.45232,-0.38999 -0.4978,-1.10006 -0.15835,-1.65851 0.29228,-0.48096 0.84231,-0.72017 1.3696,-0.76397 z m 73.64906,0.34197 c 0.73703,0.0228 1.53301,0.36135 1.6324,0.89538 0.3723,2.02828 1.52121,2.99441 1.86909,3.63288 0.52981,0.97371 0.23584,1.51195 -0.36893,1.86909 -0.41358,0.24427 -1.06132,0.3007 -1.34265,0.73702 -0.5416,0.83557 -4.06667,-5.57693 -2.86891,-6.81766 0.22574,-0.23416 0.63679,-0.32934 1.079,-0.31671 z m -98.78697,0.76398 c 1.77475,-0.22827 2.68024,2.49745 4.39602,6.18592 1.13628,2.44186 3.06517,5.24338 4.26462,8.13335 0.92064,2.22033 1.48499,4.47519 2.57999,6.42261 1.21293,2.15885 0.82547,4.63692 1.44793,6.23815 0.69154,1.78149 2.23802,3.46442 2.58,3.47453 0.0531,0.002 3.71459,0.13983 8.52839,2.07967 6.44536,2.59852 14.09437,6.14044 15.29298,7.63385 0.52476,0.65364 -0.45737,1.68799 -1.7638,2.31636 -2.38121,1.14385 -2.55978,1.48583 -3.00115,1.71073 -0.50875,0.26111 -3.17129,-1.79412 -12.45018,-6.15982 -2.82258,-1.32748 -6.06464,-2.52103 -9.3707,-3.65899 -1.39318,-0.47843 -8.24201,-3.25721 -15.39827,-4.84328 -6.46473,-1.43277 -13.33546,-1.61808 -15.55663,-1.8952 -0.51212,-0.064 -0.57024,-0.5753 -0.55255,-0.60562 0.59046,-1.05963 2.34078,-1.36202 4.26461,-1.7638 2.39469,-0.50033 5.17684,-0.94507 7.79137,-0.73702 3.33134,0.26533 5.95934,1.19608 6.08064,1.21124 2.4646,0.29228 12.21939,5.23159 12.21349,2.34246 -0.004,-1.76211 -0.92148,-3.4939 -1.6585,-5.21221 -0.11624,-0.26786 -2.6398,-4.78685 -4.97469,-9.84492 -2.82005,-6.10422 -5.46238,-12.93115 -4.71357,-13.02801 z m 150.82573,0.15751 c 0.30408,-0.0851 0.7724,0.45569 1.28958,1.13207 0.56856,0.74207 1.68462,1.80001 2.00049,2.71139 0.59214,1.70736 -0.85411,2.27003 -1.92131,2.05355 -0.73029,-0.14824 -1.38644,-1.12364 -1.44793,-1.57933 -0.42705,-3.09043 -0.3125,-4.20902 0.0792,-4.31768 z m -119.18687,1.079 c 0.68058,-0.008 1.58354,0.29902 2.02659,0.39504 0.80778,0.17352 0.83642,1.38308 0.8162,1.92131 -0.0615,1.62145 0.36893,1.69978 -0.55255,1.60545 -3.23279,-0.33272 -1.96343,0.46411 -3.00115,-2.39553 -0.43211,-1.19187 0.0312,-1.51785 0.71091,-1.52627 z m -22.76849,0.57951 c 0.46833,-0.0758 1.24241,0.34619 1.71073,0.50033 4.43982,1.45467 8.7415,14.18535 10.0555,18.34636 1.30137,4.12142 2.84364,8.76087 1.97438,8.5545 -0.3563,-0.0842 -1.72927,0.11961 -3.60593,-2.42164 -1.82024,-2.46376 -3.6969,-7.93288 -4.15933,-10.16079 -0.28639,-1.37633 -2.22454,-7.08298 -3.89568,-10.39747 -1.21967,-2.41828 -2.3231,-2.62296 -2.44776,-3.57982 -0.0758,-0.5753 0.0868,-0.79683 0.36809,-0.84147 z m 84.25712,0.39504 c 0.0868,0.008 2.79058,2.89755 3.50064,4.89635 0.27544,0.78167 0.69744,1.33254 -0.0261,2.07967 -2.25739,2.32982 -5.12798,-1.68463 -5.63337,-3.76429 -0.0396,-0.1592 0.18278,-1.60207 0.76313,-2.47471 0.39842,-0.59635 1.13123,-0.76397 1.39571,-0.73702 z m -98.07606,0.34198 c 1.51953,-0.11034 1.97606,0.46917 2.50082,1.34264 0.52897,0.8819 1.28452,2.04008 0.89538,3.39536 -0.24006,0.83388 -1.51195,0.28638 -2.39553,0.1314 -0.15499,-0.0278 -1.67873,-0.35714 -2.44776,-1.55322 -0.40346,-0.625 -0.67384,-1.99207 -0.1314,-2.79058 0.36809,-0.54329 0.19963,-0.30744 0.86843,-0.42115 0.26195,-0.0438 0.49275,-0.0893 0.71006,-0.10445 z m 91.91709,2.9742 c 0.68227,0.0227 1.06973,0.55424 1.6324,1.21124 0.35714,0.41779 0.45148,1.37128 0.86842,2.05355 0.28554,0.46833 0.95939,0.64016 1.02678,1.13207 0.47843,3.49895 -1.00993,4.12984 -2.23718,3.60593 -0.65784,-0.28049 -0.92401,-1.14639 -1.47404,-1.8952 -1.05205,-1.42772 -2.10915,-2.99104 -1.65851,-3.21173 0.63931,-0.31418 0.18194,-1.67788 0.60562,-2.29024 0.29228,-0.42368 -0.0556,-0.26449 0.42115,-0.44727 0.31082,-0.11961 0.5871,-0.16678 0.81536,-0.15835 z m -65.85854,1.15817 c 0.73028,-0.0101 4.88877,5.24675 6.73848,13.39779 0.11371,0.50286 0.76398,2.9742 1.73769,5.39584 1.33169,3.31954 2.98346,6.76375 1.94826,7.05434 -1.39234,0.39084 -1.55575,-1.16912 -2.36942,-2.52693 -2.09482,-3.49643 -3.99929,-7.6667 -5.52808,-11.37118 -1.25925,-3.05506 -3.54949,-9.19803 -2.63222,-11.87152 0.0169,-0.0472 0.0573,-0.0775 0.10529,-0.0783 z m 121.02985,0.28976 c 0.13898,0.007 0.27375,0.0607 0.36893,0.15835 0.84568,0.87685 1.69726,2.24729 0.89538,3.26395 -0.85495,1.08069 -3.45347,1.82361 -4.81717,2.92198 -3.36082,2.70887 -5.33267,4.03972 -9.02872,6.63319 -1.34012,0.93833 -2.66086,0.39167 -3.07949,0.21058 -0.15667,-0.0665 -0.34787,-0.49107 0.1314,-0.8162 0.91475,-0.61826 2.99189,-1.36623 3.47453,-2.10578 0.50286,-0.76987 -1.19103,-1.05204 -1.8952,-0.76313 -2.57241,1.05457 -8.57977,5.13978 -13.29249,5.76477 -0.0177,0.003 -4.56532,1.19187 -8.97566,3.42231 -5.58536,2.82258 -11.32739,6.84545 -11.50259,6.94906 -2.815,1.64418 -5.52892,2.7055 -6.97517,3.52759 -0.6949,0.39504 -0.88695,0.91812 -1.71073,0.50033 -1.02846,-0.5197 -2.39721,-1.85224 -2.07966,-2.31635 0.77324,-1.1287 5.4708,-0.46917 9.73963,-2.9742 1.25336,-0.73618 2.6558,-2.90007 4.31684,-3.73817 2.17147,-1.09416 4.88961,-1.12869 7.2127,-2.60611 3.47537,-2.2119 7.00634,-4.46677 10.3183,-6.13286 1.09416,-0.55087 4.11637,-2.49408 7.87054,-3.39535 0.8878,-0.2131 1.62735,0.20637 2.60611,0.31587 1.0411,0.11708 2.32057,-0.0876 3.29007,-0.52645 3.10643,-1.40665 5.61147,-3.39198 7.97583,-4.92246 2.15631,-1.39992 4.18207,-3.41388 5.15662,-3.37092 z m -113.39599,1.36875 c 0.61825,-0.008 2.62632,0.38662 4.94857,1.23736 3.04242,1.11521 6.52369,3.08538 9.39681,4.55352 2.96493,1.51448 5.28297,2.50925 4.3699,2.92198 -0.21815,0.0985 -0.78082,0.0303 -1.34264,-0.0261 -0.0581,-0.006 -3.84851,-1.38055 -7.84443,-3.13255 -2.97925,-1.30727 -5.55841,-2.96157 -7.44939,-4.08015 -1.33759,-0.79093 -2.59684,-1.24073 -2.26413,-1.44794 0.0278,-0.0177 0.0969,-0.0244 0.18531,-0.0261 z m 28.69076,0.21058 c 0.657,-0.005 1.36539,0.68396 1.68462,2.50082 0.25859,1.47236 0.41526,4.0633 -0.15835,4.65882 -0.34366,0.35882 -1.25504,-0.55509 -1.71073,-1.31653 -0.2687,-0.44727 -1.25757,-4.23767 -1.05289,-4.76411 0.2468,-0.63594 0.72607,-1.07479 1.23735,-1.079 z m 23.76915,0.47338 c 0.93749,0.0708 1.63914,1.44624 1.8952,2.34246 0.0505,0.17857 0.47422,1.92637 0.8162,3.21173 0.96023,3.62783 -4.23177,-0.29818 -4.58049,-1.15818 -0.4262,-1.05457 -0.19541,-2.64822 0.47423,-3.52759 0.50622,-0.66542 0.96781,-0.90043 1.39486,-0.86842 z m -85.99481,1.18513 c 0.92739,-0.0708 2.05777,0.16762 3.15867,0.65784 4.75821,2.12262 4.68324,3.5276 2.79057,4.00098 -0.4658,0.11623 -3.32291,-0.0884 -5.42279,-0.23669 -1.17755,-0.0826 -2.11083,0.0817 -2.26413,-0.23669 -0.64942,-1.34012 -0.4161,-2.28856 -0.18447,-2.94809 0.2746,-0.77998 0.99561,-1.16744 1.92215,-1.23735 z m 33.6663,1.55238 c 1.12448,0.0657 6.92042,2.69286 7.65996,3.00115 3.83167,1.59617 8.87121,4.82728 9.58128,5.3175 2.05271,1.41592 6.46894,3.60509 10.1869,4.84328 2.01649,0.67217 6.13033,0.96192 4.92246,1.079 -0.0177,0.003 0.17183,1.50942 -1.21124,1.81602 -1.46478,0.32682 -3.60256,0.14993 -4.31684,0.10529 -0.0446,-0.003 -4.55606,-1.24914 -8.73897,-2.94808 -4.05404,-1.64756 -7.71556,-3.78534 -8.23863,-4.02709 -2.30962,-1.06552 -7.55384,-3.00873 -9.5021,-6.21203 -0.57109,-0.93834 -1.21798,-2.48566 -0.50034,-2.94809 0.0303,-0.0202 0.0825,-0.0312 0.15752,-0.0269 z m 85.12638,1.47404 c 0.13982,-0.002 0.29481,0.0295 0.44727,0.0792 0.41778,0.13477 1.09079,0.5854 0.92148,1.13206 -0.14571,0.46664 -1.03604,0.422 -1.57933,0.86842 -0.22152,0.18194 -1.12532,0.93581 -2.07966,1.21124 -0.60394,0.17268 -0.60562,-0.10192 -0.89538,-0.42115 -0.19794,-0.21816 -0.84399,-0.33777 -0.63173,-0.89538 0.22743,-0.59804 1.56754,-1.25757 2.81669,-1.68462 0.23753,-0.0825 0.57951,-0.2847 1.00066,-0.28975 z m 39.85138,0.65869 c 0.7008,-0.0404 1.20787,0.1853 1.28957,0.28975 0.12214,0.15499 -1.34011,2.22454 -3.10644,4.58048 -0.83051,1.10764 -2.1959,1.84719 -3.26395,2.81669 -1.08321,0.98297 -6.1556,3.93527 -6.47568,4.60659 -0.15414,0.32092 -1.04025,-0.13308 -1.23735,-0.55255 -0.18615,-0.39505 0.12213,-1.07985 0.21058,-1.28958 0.61404,-1.45214 2.85964,-3.34734 4.44824,-4.50131 0.87431,-0.63594 1.84718,-1.81012 2.97419,-2.31635 1.35781,-0.60983 2.5741,-2.50503 3.73817,-3.18477 0.51129,-0.30071 1.00151,-0.42537 1.42267,-0.44895 z m -88.20587,0.10528 c 0.53571,0.0152 1.27357,0.39421 1.97437,0.8162 0.32682,0.1971 4.00097,2.3551 3.55371,3.02727 -0.51381,0.77239 -2.14116,1.21713 -3.5276,1.39486 -1.01077,0.12972 -1.88846,0.28976 -2.15884,-0.60562 -1.10511,-3.65647 -0.73365,-4.65882 0.15836,-4.63271 z m 97.60268,1.57934 c 2.06871,-0.064 4.18291,0.27459 6.02757,1.02677 1.25673,0.51213 5.06481,2.24476 4.47519,4.4752 -0.11539,0.43463 -0.83136,1.68883 -1.84297,2.15884 -1.80339,0.83725 -4.17955,0.98044 -3.05338,2.31635 0.51465,0.61236 2.24139,0.47085 3.89569,0.79009 3.38693,0.65363 7.73746,1.59196 9.58127,3.31701 3.42568,3.20499 2.5421,8.01964 -0.1314,10.02855 -1.83034,1.3738 -4.94099,0.83388 -7.4755,1.00066 -1.42771,0.0927 -3.09128,1.35949 -4.26461,1.31653 -0.91307,-0.0337 -1.37128,-1.18513 -2.18496,-2.29024 -1.31232,-1.78149 -2.53535,-4.12395 -2.89586,-4.71188 -0.72017,-1.17081 -1.06131,-2.5303 -1.78991,-2.73751 -0.73533,-0.20974 -1.0133,0.9914 -1.50015,2.00049 -0.48686,1.00993 -1.2045,1.80591 -1.39487,1.71073 -3.95717,-1.95163 -2.57578,-10.44296 -1.42182,-11.10839 0.35293,-0.20299 0.17099,-1.5827 0.10529,-2.81668 -0.059,-1.08911 0.043,-2.05187 -0.55255,-1.97438 -0.16594,0.0211 -2.01818,1.02931 -3.86958,2.50082 -3.08706,2.45281 -6.741,5.98461 -7.4755,6.2651 -1.63998,0.62331 -1.85392,-0.673 -2.13188,-0.94759 -0.7126,-0.70333 1.43782,-2.20517 2.65833,-3.07949 0.90632,-0.64942 1.74779,-1.9828 3.00115,-3.00115 1.16575,-0.94676 2.35847,-2.16642 5.02775,-4.05404 1.94573,-1.37718 4.55268,-2.10409 7.2127,-2.18579 z m -57.14485,0.47337 c 0.34451,-0.0438 0.66038,0.0876 0.86843,0.0531 1.0891,-0.18531 0.92738,0.71091 1.60544,0.89538 0.1314,0.0354 0.40515,0.35545 0.31587,0.47422 -0.14994,0.19794 -0.82378,0.24005 -1.21125,0.57951 -0.48348,0.42199 -0.82883,1.09416 -1.68462,0.63173 -0.82209,-0.44137 -1.2424,-1.90194 -0.23669,-2.52693 0.11372,-0.0724 0.22743,-0.0918 0.34282,-0.10698 z m -112.00113,0.86843 c 0.23838,-0.005 0.48012,8.4e-4 0.76314,0.0261 1.27778,0.11455 4.89213,0.15751 6.97517,1.73768 3.49643,2.65328 6.80755,5.46238 1.28957,5.05386 -2.29192,-0.17014 -4.83654,-1.0731 -7.29103,-1.60544 -1.90952,-0.41357 -3.88726,-0.35967 -4.92246,-1.15818 -1.20956,-0.93243 -0.83389,-1.85224 0.18446,-2.7375 0.64605,-0.56351 1.32748,-1.282 3.00115,-1.31653 z m 107.47372,1.81686 c 0.24006,0.003 0.44558,0.005 0.52644,0.0261 0.69491,0.18868 0.68396,0.7227 0.71091,1.079 0.0556,0.74797 -0.96023,2.02323 -2.0266,2.52693 -0.72944,0.34282 -1.57933,0.13814 -1.78991,-0.1314 -0.81535,-1.03857 0.26112,-2.75267 0.57951,-3.26395 0.10866,-0.17605 1.2761,-0.24596 1.99965,-0.23669 z m -6.31733,3.07948 c 0.82378,-0.003 0.94423,1.4134 0.92149,2.26413 -0.0135,0.45654 -0.22321,0.31419 -0.65785,0.63174 -0.14656,0.10529 -0.29396,0.21142 -0.42115,0.28975 -1.517,0.91307 -1.88004,-0.1255 -2.00049,-2.26413 -0.043,-0.72944 0.75977,-0.91559 2.158,-0.92149 z m -62.04203,0.0522 c 0.69996,-0.027 2.25823,0.73533 3.71122,1.26346 1.37633,0.49949 2.6718,0.66459 3.05337,0.79009 2.28434,0.74713 4.66303,2.14873 7.10741,3.18477 2.94725,1.25083 5.86501,2.1799 7.23882,3.68511 0.50117,0.54919 -0.64016,1.24325 -1.26347,2.36942 -0.3445,0.62331 -1.45046,0.22405 -2.15884,0 -0.22321,-0.0708 -2.43007,-0.68733 -5.10693,-1.81602 -1.30726,-0.55003 -5.36635,-2.45955 -8.44921,-4.26462 -0.83052,-0.48601 -4.2006,-2.03839 -4.29073,-2.63222 -0.16593,-1.09247 -0.63004,-2.17568 -0.0792,-2.52693 0.0623,-0.0396 0.13729,-0.0489 0.23753,-0.0531 z m 43.45814,0.79008 c 0.98045,-0.005 2.14031,0.34872 2.52693,0.44727 1.72421,0.44137 0.91644,0.90548 -0.0531,1.60544 -1.16913,0.84484 -2.99947,1.43025 -3.44842,1.8952 -0.36977,0.3841 -1.26683,0.42284 -1.71073,0.65785 -1.33422,0.70417 -2.46965,1.28199 -3.9218,1.079 -0.20299,-0.0278 -2.10661,-0.67891 -3.31701,-1.31654 -1.20956,-0.63762 -1.53638,-1.42603 0.23669,-1.71073 0.28049,-0.0446 2.55472,-0.51381 5.23832,-1.18429 1.82697,-0.45653 2.7712,-1.27525 4.02709,-1.44793 0.1314,-0.0168 0.28133,-0.0244 0.42199,-0.0253 z m 11.63483,2.21107 c 0.30155,0.0135 0.56267,0.14151 0.73702,0.18446 0.0228,0.006 0.54666,0.13393 0.71091,0.63174 0.16173,0.49696 -0.0227,1.37128 0,1.92131 0.0236,0.57698 0.26112,1.18428 -0.60562,1.18428 -0.27206,0 -0.54329,0.0253 -0.8162,0 -0.0269,-0.003 -0.57866,0.0531 -0.94759,-0.39504 -0.47507,-0.5753 -0.71934,-1.81518 0.0261,-3.02726 0.25269,-0.41105 0.59214,-0.51297 0.89537,-0.49949 z m -135.24383,2.60611 c 0.52307,0.008 1.08911,0.0312 1.57933,0 1.50352,-0.0969 1.26347,1.63997 -0.0792,2.97419 -0.83978,0.83305 -2.97925,1.61555 -4.26461,2.07967 -2.27171,0.82293 -2.19506,-1.05205 -1.18429,-2.47471 0.45906,-0.64521 1.40918,-0.94507 1.8952,-1.28958 0.38662,-0.27543 0.2788,-0.9855 0.65784,-1.13206 0.39504,-0.15162 0.87179,-0.16594 1.39571,-0.15751 z m 129.426,0.21057 c 0.25859,-0.0168 0.45232,0.0573 0.60562,0.23669 0.52223,0.61152 0.86926,0.48602 0.9476,0.76314 0.1971,0.70669 -1.12954,1.70736 -1.7638,2.18495 -2.158,1.62313 -1.70231,1.6425 -4.55353,1.21124 -1.95332,-0.29734 -3.29175,-1.03099 -3.18477,-1.60544 0.1474,-0.79009 2.35257,-0.71849 4.13237,-1.34265 1.77138,-0.62162 3.0399,-1.39992 3.81651,-1.44793 z m 47.72276,1.02594 c 2.76194,0.11624 9.0144,4.28146 16.74091,9.52905 5.5045,3.73902 13.36073,7.5193 18.97809,11.16061 6.39482,4.14585 15.17506,8.83499 22.11064,12.58243 3.6371,1.96511 7.56226,3.62362 5.60642,3.4223 -0.35967,-0.0371 -2.57326,-0.78671 -4.15933,-1.44793 -2.55641,-1.06552 -5.27455,-3.11654 -8.23863,-4.84328 -4.19555,-2.4427 -8.68169,-4.70262 -12.0821,-6.76459 -3.42315,-2.07545 -7.4098,-4.0254 -10.97614,-6.26511 -6.89684,-4.32778 -13.03054,-8.13755 -15.95167,-9.42376 -2.49071,-1.09753 -4.9511,-2.41743 -6.44873,-3.47453 -2.33572,-1.6484 -3.2252,-2.87986 -5.50112,-2.65833 -2.32478,0.2249 -4.83234,2.72403 -8.94955,5.65948 -3.58656,2.55473 -7.79053,4.05657 -11.31896,5.58031 -1.4572,0.62836 -2.63896,2.6937 -4.29073,2.57999 -0.79009,-0.0539 -1.49257,-0.26785 -2.05355,-0.6848 -0.43042,-0.31923 4.62344,-2.64485 10.26607,-5.5803 3.61688,-1.88256 7.38622,-4.19386 10.39748,-5.81699 2.78889,-1.50353 4.51057,-3.09549 4.89635,-3.34313 0.24595,-0.15836 0.57951,-0.22743 0.97455,-0.21142 z m -153.14292,0.9476 c 0.41357,-0.0177 0.88189,-0.0169 1.39486,0 4.8037,0.15835 13.34472,1.75537 17.89909,2.7375 9.04725,1.95248 18.65212,4.99996 25.29542,8.50228 1.1986,0.63173 6.82523,2.13863 8.34392,4.21155 1.03941,1.41929 -2.76194,3.28922 -4.34295,3.73817 -0.59467,0.16847 -1.9331,-0.70754 -2.8428,-1.05288 -3.74744,-1.42267 -9.19718,-4.56617 -11.97681,-5.50113 -1.69978,-0.57193 -9.17949,-3.42989 -16.89926,-5.07997 -9.92494,-2.12178 -21.12093,-2.34836 -21.00553,-2.9742 0.62247,-3.37429 1.23735,-4.45835 4.13406,-4.58132 z m 58.17246,0 c 2.49745,-0.0236 6.03852,1.75621 8.76508,3.26395 2.05355,1.13712 3.80303,1.94489 3.44841,2.63222 -1.03183,1.99711 -3.34481,2.88154 -5.50112,2.44775 -1.35107,-0.27122 -2.45871,-1.40834 -3.71122,-2.05355 -1.22304,-0.63089 -2.51682,-0.80862 -3.15866,-1.60545 -0.51129,-0.63678 0.059,-1.21124 0,-1.86908 -0.0935,-1.02846 -0.65279,-2.80742 0.15751,-2.81584 z m 27.19061,0.23753 c 1.61808,0.0531 3.57224,3.20078 3.23784,3.76428 -0.14404,0.24259 -2.19169,-1.4016 -3.86957,-1.52711 -0.78841,-0.0581 -2.08472,0.94002 -3.84346,2.13189 -2.2675,1.53553 -5.67633,3.42146 -8.34393,5.34361 -2.98936,2.15211 -5.41605,4.722 -6.86988,5.05387 -0.2687,0.0606 -0.45485,-0.45906 -0.65784,-0.52645 -0.82462,-0.27122 14.38918,-9.57706 14.92489,-10.10772 1.25925,-1.25167 3.31954,-3.02221 4.76411,-3.94875 0.20973,-0.13477 0.42705,-0.1912 0.65784,-0.18362 z m -106.57834,3.60593 c 0.22069,-0.003 0.40936,0.0202 0.60562,0.0792 0.82547,0.24764 0.60394,0.83642 0.57951,1.42182 -0.0371,0.8819 -0.454,2.16053 -1.71073,3.29007 -0.75471,0.6789 -2.21106,1.19608 -2.94808,1.81602 -0.96108,0.80777 -1.18261,1.63745 -1.97438,2.0266 -0.50202,0.24595 -1.05457,0.15835 -1.34264,0.15835 0,-2.43175 0.0421,-3.57813 1.81602,-5.73866 1.33169,-1.62313 3.42904,-3.03905 4.97468,-3.05337 z m 18.76751,4.55353 c 1.5448,-0.0556 3.79798,0.21141 6.84377,0.52644 3.69269,0.38157 8.37088,0.54413 12.31879,1.86908 3.45936,1.15987 7.56394,1.63324 11.71316,2.92198 7.772,2.41406 15.38732,5.4986 16.9776,5.97535 2.65244,0.79514 -0.46411,1.57596 -1.6585,2.57999 -1.53722,1.28958 -2.46376,2.04934 -4.29073,1.71073 -0.74039,-0.13729 -4.19723,-1.74526 -8.73897,-3.50064 -8.37256,-3.23531 -15.73435,-5.25685 -24.74286,-6.3965 -2.45617,-0.30997 -5.46996,0.41863 -7.00212,0.26364 -2.72993,-0.27627 -3.29175,-1.18597 -3.47453,-1.71073 -1.10343,-3.1713 -0.52139,-4.14669 2.05439,-4.23934 z m -17.45182,2.55304 c 0.77324,0.008 2.05271,2.64654 1.8952,3.39535 -0.19542,0.93581 -1.44035,3.0938 -4.97469,5.15915 -1.09416,0.63931 -2.05944,1.30895 -2.71139,1.00066 -1.88172,-0.89285 -1.14049,-3.52085 0.0531,-5.26444 0.66543,-0.97286 2.01228,-2.03839 2.8428,-3.02726 0.24427,-0.29144 1.88088,-1.27273 2.89502,-1.26346 z m 18.92587,6.00146 c 0.75386,-0.0143 1.73768,0.0219 3.00115,0.0531 0.0716,0.002 6.55654,0.39757 12.13432,1.23736 3.94116,0.59214 7.43001,1.69725 7.89665,1.81602 3.39535,0.87263 8.27233,2.60695 11.58177,4.31684 0.96865,0.50033 2.31466,0.689 2.81668,1.23735 1.00488,1.09753 0.28302,2.81668 -1.34264,3.05337 -1.4353,0.20805 -3.48043,-0.89958 -7.26493,-2.31635 -4.04308,-1.51279 -8.97565,-3.23279 -13.92422,-4.29073 -0.84905,-0.18194 -4.113,-1.11437 -7.52857,-1.47404 -4.39265,-0.46243 -9.01693,-0.36556 -9.05483,-0.50033 -0.7345,-2.58253 -0.57614,-3.09044 1.68462,-3.13255 z m 86.62653,0.84231 c 0.21479,0.005 0.42453,0.032 0.63174,0.0792 1.01077,0.22911 4.39096,0.97456 6.5279,2.07967 0.33355,0.17267 2.06787,1.47657 3.63288,2.50082 2.73414,1.78906 1.71326,2.23717 0.47422,1.7899 -0.52139,-0.18952 -1.28115,-0.85241 -2.21106,-1.34264 -1.3578,-0.71765 -2.95735,-1.31484 -3.7904,-1.76379 -1.1607,-0.62584 -2.24896,-1.67873 -3.65899,-1.92131 -1.92805,-0.33272 -3.91506,0.54918 -5.23833,1.26346 -0.72101,0.38831 -1.25588,0.47001 -2.05355,1.15818 -0.64437,0.55508 -2.16895,1.75453 -2.05355,0.76313 0.0177,-0.14067 0.51465,-0.60646 0.57951,-0.84231 0.0497,-0.18699 1.05289,-0.63173 2.13189,-1.44793 1.82612,-1.38055 3.52085,-2.34836 5.02774,-2.31635 z m 33.19208,0 c 2.37363,-0.091 4.12395,0.88021 3.89568,1.73768 -0.0901,0.33524 -0.0219,0.79851 -1.02678,0.9476 -1.96426,0.29144 -2.92365,1.44372 -4.39601,2.31635 -1.40582,0.83221 -3.24627,1.55828 -5.31751,1.84298 -0.81114,0.11034 -1.54648,0.36977 -2.4747,0.21058 -0.5694,-0.0985 -0.55761,-1.1287 -0.34198,-1.47405 0.37062,-0.59972 1.18429,-0.53655 1.97437,-0.73702 1.85814,-0.47085 3.94707,-1.955 5.50113,-3.18477 0.81367,-0.64437 1.28958,-1.62566 2.1858,-1.65935 z m -65.04235,1.3957 c 0.82462,0 1.73769,0.11961 1.73769,0.86843 -1.87751,0 -1.79581,2.63221 -3.02726,2.63221 0,1.84719 -2.60611,2.05524 -2.60611,3.02727 -1.77643,0 -2.67265,1.73768 -4.79106,1.73768 0,0.77577 -2.15884,0.65616 -2.15884,1.73769 -1.59534,0 -1.47741,1.78991 -3.07949,1.78991 0,-0.82547 -0.85831,-1.31653 0,-1.31653 0,-1.3418 3.07949,-1.56838 3.07949,-2.63222 0.74039,0 3.02726,-1.05963 3.02726,-1.73769 0.73955,0 3.02726,-1.06047 3.02726,-1.73768 h 0.89538 c 0,-0.7783 3.89568,-2.56147 3.89568,-4.36907 z m -72.51784,0.2628 c 0.40431,-0.006 0.8044,0.075 1.15817,0.28976 0.39673,0.2409 0.32008,0.79935 0.50034,1.18429 0.39504,0.84736 0.73618,1.73768 0.92148,2.76362 0.20974,1.16491 -0.51296,1.49089 -1.10595,2.29024 -0.40515,0.5475 -0.28807,1.73937 -1.6324,1.92131 -0.63173,0.0859 -1.63155,1.314 -2.55304,1.05289 -0.55255,-0.15499 -1.04867,-1.57344 -1.47404,-2.05356 -0.46159,-0.5197 -1.1885,-0.98045 -1.079,-2.23717 0.25185,-2.89839 2.26581,-3.91759 3.29006,-4.55353 0.60731,-0.37651 1.30053,-0.64774 1.97438,-0.65785 z m -20.60965,3.659 h 5.23833 c 0,1.41508 1.28958,2.07629 1.28958,3.47453 1.07816,0 0.95602,2.18495 1.73768,2.18495 0,1.26684 -1.73768,-0.26701 -1.73768,-1.31653 -0.8162,0 -0.78925,-1.28958 -2.15884,-1.28958 0,-0.88863 -1.73769,-0.42873 -1.73769,-1.31653 -1.24072,0 -5.23832,-0.0278 -5.23832,1.31653 -1.27442,0 -1.43783,0.86843 -3.05338,0.86843 0,0.92064 -2.15884,1.08489 -2.15884,2.15884 -0.90296,0 -1.53469,2.21106 -3.05337,2.21106 0,1.47657 -1.7638,1.70484 -1.7638,2.60611 -0.9973,0 -0.50791,1.28957 -1.28958,1.28957 0,-0.92654 0.42537,-3.02726 1.28958,-3.02726 0,-1.53974 2.21106,-2.05355 2.21106,-3.07948 1.26852,0 1.5389,-1.28958 3.02727,-1.28958 0,-0.53824 1.73768,-0.82462 1.73768,-1.73769 1.17755,0 1.45973,-0.86842 2.63222,-0.86842 0,-0.90969 2.15884,-0.29649 2.15884,-1.31653 0.37062,0 0.86926,-0.5096 0.86926,-0.86842 z m 40.3256,0.1314 c 0.9695,0.0455 2.76109,0.77577 5.4489,0.89538 2.71393,0.12129 5.24423,0.0345 7.87055,0.55255 2.29024,0.45148 4.56953,0.92402 5.97535,1.84298 1.21124,0.79345 1.13964,2.82426 1.84297,3.5537 1.71747,1.78233 1.72505,2.27761 0.39505,1.92131 -0.56183,-0.15161 -1.0689,-0.59046 -2.26413,-0.92149 -1.7638,-0.48769 -4.20903,-1.96426 -7.00213,-2.52693 -3.13171,-0.6292 -7.1748,-0.81114 -9.79185,-1.39486 -2.80321,-0.625 -3.12666,-1.0352 -3.29007,-2.15884 -0.20889,-1.41593 0.0598,-1.79918 0.81536,-1.7638 z m 170.38333,2.44775 c 0.673,-0.0497 2.33067,0.86758 4.42213,1.86909 3.6034,1.72589 8.48122,4.24608 11.63482,6.44873 0.82715,0.5795 1.78486,1.23566 2.63222,1.60544 0.61742,0.27038 1.08995,0.45485 1.00067,0.76313 -0.0758,0.25775 -0.63258,0.87179 -1.50016,0.86842 -0.92485,-0.003 -2.02491,-0.86673 -4.39601,-2.07966 -2.52946,-1.29126 -5.23243,-2.91608 -5.97535,-3.42231 -0.90717,-0.61404 -2.96072,-1.92299 -4.60659,-2.97419 -0.80104,-0.51044 -1.35107,-1.04278 -1.92131,-1.26347 -0.6469,-0.25101 -1.27189,-0.17857 -1.92131,-0.57951 -0.65195,-0.40009 -0.75387,-1.13459 0.63089,-1.23567 z m -67.59539,0.71091 c 0.45148,0.0143 0.88106,0.17605 1.10596,0.47422 0.3664,0.4877 -2.2237,2.52441 -2.63222,2.76362 -0.4818,0.28133 -1.37718,0.39842 -2.18496,0.73702 -1.28031,0.5374 -2.52356,1.27021 -3.00115,1.31654 -2.60526,0.25353 0.15836,-0.86169 1.6324,-2.0266 1.3637,-1.07732 2.3332,-1.28031 3.86957,-2.8428 0.28976,-0.29649 0.75808,-0.43632 1.2104,-0.422 z m -119.34523,1.52711 c 1.13207,0.0194 1.37634,1.67451 1.36875,4.89635 -0.003,0.74208 -0.0514,2.0047 -1.00066,2.23718 -1.04278,0.25606 -2.3551,-0.48854 -2.89586,-0.8162 -2.92366,-1.77138 0.3664,-6.35607 2.52777,-6.31733 z m 21.03164,2.10578 c 4.31179,0.14235 12.82838,3.33891 13.92423,3.60593 2.11504,0.51802 3.9159,0.70501 3.71122,1.47404 -0.89117,3.34987 -5.04039,1.38054 -7.6069,0.73702 -3.28164,-0.82294 -7.00213,-1.16155 -9.00261,-1.84297 -5.1044,-1.73685 -3.97655,-4.07342 -1.02594,-3.97402 z m 193.38934,43.95763 c -1.56164,0 -3.0441,0.42284 -4.44824,1.26347 -1.40581,0.84062 -2.45196,1.96342 -3.13255,3.34313 -0.68058,1.37886 -1.03941,3.06685 -1.10595,5.10692 h 1.26347 c 0.22152,-1.74189 0.67806,-2.95145 1.36875,-3.63288 0.68985,-0.68059 1.52374,-1.00066 2.52693,-1.00066 0.53402,0 1.44035,0.13561 2.7114,0.42115 2.20601,0.52813 4.01023,0.79009 5.36972,0.79009 2.11589,0 4.68493,-0.49781 7.73915,-1.50016 -3.24205,2.12262 -5.44469,3.78029 -6.60708,4.97469 -1.16239,1.19439 -1.98364,2.50924 -2.47471,3.94875 -0.49191,1.4395 -0.77998,3.72301 -0.86842,6.86988 -1.22725,-0.13393 -2.25571,-0.18447 -3.07949,-0.18447 -2.23043,0 -4.06246,0.62331 -5.50112,1.8952 -1.43867,1.27189 -2.27761,2.99188 -2.50082,5.13304 l 1.28957,0.42115 c 0.51044,-1.04194 1.0133,-1.72084 1.52711,-2.05355 0.95687,-0.64353 2.06872,-0.97371 3.31702,-0.97371 2.00217,0 3.49474,0.78503 4.47519,2.36942 0.62247,0.98213 0.95097,2.57747 0.97371,4.7641 -0.51128,-0.0219 -0.88779,-0.0261 -1.13206,-0.0261 -2.08977,0 -3.77187,0.58793 -5.02775,1.78991 -1.25588,1.20198 -1.8952,2.73667 -1.8952,4.60659 0,0.20047 0.0286,0.52561 0.0531,0.9476 l 1.18429,0.0261 c 0.19962,-1.17671 0.60393,-2.04176 1.18428,-2.55305 0.57951,-0.51128 1.32075,-0.76313 2.23718,-0.76313 1.00235,0 1.84213,0.31165 2.50082,0.9476 0.65784,0.63594 0.97371,1.46646 0.97371,2.44775 0,0.82462 -0.27544,1.69978 -0.84231,2.65833 -0.56688,0.95855 -1.86488,2.47892 -3.89569,4.55353 -2.03333,2.07461 -3.36418,3.65984 -3.97486,4.76411 -0.61151,1.10427 -0.92148,2.10325 -0.92148,2.97419 0,0.93581 0.25858,1.69894 0.76313,2.29025 0.5037,0.59045 1.08237,0.89537 1.71073,0.89537 0.40347,0 0.76987,-0.19205 1.10595,-0.52644 0.33608,-0.3344 0.50034,-0.7126 0.50034,-1.15818 0,-0.47001 -0.24427,-1.10343 -0.71091,-1.8952 -0.46833,-0.79261 -0.6848,-1.38812 -0.6848,-1.78991 0,-1.07226 0.79008,-2.13946 2.39553,-3.21172 2.38626,-1.60713 5.55419,-2.42165 9.5021,-2.42165 3.21088,0 6.21709,0.48433 9.02872,1.42182 1.73937,0.55761 3.58656,1.50437 5.52808,2.8428 5.59968,-4.65039 12.37522,-7.42328 20.32073,-8.31781 v -11.52954 c 0,-2.61116 -0.28638,-4.46425 -0.84231,-5.58031 -0.55677,-1.11606 -1.53048,-2.02238 -2.92197,-2.7375 -1.39234,-0.71428 -3.56971,-1.20619 -6.55402,-1.47405 3.4939,-2.66001 5.88354,-4.96289 7.18575,-6.89683 1.30221,-1.93395 1.94826,-3.79545 1.94826,-5.60642 0,-2.21275 -0.83136,-4.17196 -2.50082,-5.87006 -1.18091,-1.20703 -2.92197,-2.13862 -5.23832,-2.76362 -7.26324,2.2296 -11.98018,4.01951 -14.13481,5.36973 -2.15715,1.35107 -3.64467,2.98346 -4.44824,4.86939 -0.8044,1.88594 -1.18428,5.11535 -1.18428,9.71268 v 9.87103 c 0,3.72723 -0.6907,6.55655 -2.05356,8.47617 -1.36285,1.91878 -4.02371,3.72301 -7.97583,5.39584 2.02575,-2.14284 3.38609,-4.06415 4.05404,-5.73866 0.66795,-1.67283 1.00066,-4.01445 1.00066,-7.02823 v -13.74061 c 0,-3.68342 0.79851,-6.65088 2.39553,-8.87037 1.59618,-2.22033 4.78432,-4.49962 9.60739,-6.84377 l -0.63173,-1.47404 c -1.87414,0.80356 -3.40546,1.33843 -4.55353,1.60544 -1.14891,0.26786 -2.32815,0.42116 -3.55371,0.42116 -1.67282,0 -3.85609,-0.35798 -6.55401,-1.02678 -2.69876,-0.66795 -4.63271,-0.99898 -5.79173,-0.99898 z m -288.20145,0.73702 c -1.1826,1.67536 -2.15715,2.72656 -2.94808,3.18478 -0.79177,0.45822 -1.92721,0.6848 -3.42231,0.6848 -2.23128,0 -6.33248,-0.47928 -12.26656,-1.47405 -5.93492,-0.99476 -10.0555,-1.50015 -12.39796,-1.50015 -3.36924,0 -6.37039,0.63931 -9.00261,1.92131 -2.63306,1.28284 -4.76411,3.10644 -6.37039,5.4489 -1.20535,1.76296 -2.19001,4.22924 -2.94809,7.39633 l 1.28958,0.73702 c 0.77829,-2.47892 1.70652,-4.32947 2.76362,-5.5803 1.05626,-1.24999 2.53114,-2.25234 4.42213,-3.00116 1.89014,-0.74881 3.60087,-1.08994 5.15915,-1.00066 l 4.21155,0.23669 c -2.76447,1.94321 -4.90646,3.70953 -6.42262,5.3175 -2.38626,2.56905 -4.19639,5.26781 -5.42279,8.08113 -1.2264,2.815 -1.84298,5.76224 -1.84298,8.84425 0,3.06011 0.55677,5.80015 1.68462,8.21253 1.12702,2.41237 2.58,4.46171 4.34296,6.15981 1.76295,1.6981 3.69689,3.01042 5.81699,3.94875 3.65984,1.60713 7.59595,2.42164 11.79234,2.42164 4.30589,0 8.08955,-0.87179 11.37119,-2.58 3.28079,-1.70652 5.97871,-3.99928 8.05501,-6.92294 1.29379,-1.8076 2.41322,-4.22166 3.39535,-7.2127 l -1.26347,-0.60562 c -1.71662,3.03231 -3.60087,5.35793 -5.60641,6.97517 -2.00554,1.61723 -4.6942,2.94892 -8.08112,3.97486 v -33.85076 c 1.56417,0.13393 2.90428,0.21058 4.00097,0.21058 2.05692,0 3.8721,-0.35293 5.4489,-1.079 1.57596,-0.72523 2.76278,-1.72421 3.57982,-2.9742 0.8162,-1.24915 1.45214,-2.96746 1.92131,-5.13304 z m 92.206,0.50034 c -1.8337,0 -3.51917,0.33692 -5.02774,1.02677 -1.50858,0.68985 -3.04243,1.76885 -4.6066,3.23784 l 0.89538,1.02678 c 1.90025,-1.1447 3.61519,-1.73769 5.15915,-1.73769 1.40834,0 2.70634,0.33608 3.86957,1.00067 1.16323,0.66458 1.94405,1.49257 2.36942,2.50082 0.42536,1.00656 0.65784,2.596 0.65784,4.7641 v 2.34247 l -8.73897,5.7117 c -1.22387,0.82462 -2.63306,1.64503 -4.21155,2.44775 v 1.39487 c 3.08875,0.82799 5.64095,1.99122 7.63386,3.50064 1.99206,1.51026 3.37093,3.18225 4.13237,5.02775 0.76061,1.84466 1.16155,4.30168 1.18429,7.3441 -3.17635,0.64353 -5.89364,1.61555 -8.10723,2.94809 -2.21444,1.33253 -4.83318,3.66826 -7.89666,6.97517 l 1.05289,1.28957 c 2.21527,-1.74021 4.41286,-3.02389 6.60708,-3.8165 2.19337,-0.79262 4.98647,-1.2761 8.34392,-1.47405 v 13.63532 h 12.45019 v -13.05581 c 1.98701,0.15583 3.99086,0.48854 6.00146,1.00067 2.00975,0.51128 4.3859,1.3359 7.13352,2.44775 l 10.29219,-9.16012 v -21.3214 c 0,-3.03653 -0.29902,-5.33266 -0.86842,-6.89683 -0.56941,-1.56249 -1.73011,-3.24121 -3.5276,-5.02775 -1.79833,-1.78654 -5.05302,-4.1627 -9.76574,-7.13353 l -9.26541,6.00146 v -6.00146 h -1.52711 v 6.94906 l -4.02709,2.68529 c -0.0455,-2.17316 -0.40346,-3.88305 -1.10595,-5.15915 -0.70501,-1.2761 -1.88846,-2.35763 -3.55371,-3.21173 -1.66272,-0.85326 -3.52001,-1.26262 -5.55335,-1.26262 z m -73.96493,1.52626 c -1.64082,0.22237 -3.08454,0.63679 -4.34295,1.23736 -1.25925,0.60056 -2.57747,1.55322 -3.94875,2.84279 -1.15396,-1.01919 -2.07966,-1.74863 -2.79057,-2.15884 -0.71091,-0.4102 -1.66693,-0.77324 -2.8428,-1.10595 l -0.34198,0.86842 c 1.43698,0.82546 2.3829,1.73769 2.86891,2.76362 0.48601,1.02593 0.73702,2.92029 0.73702,5.68559 v 30.45457 l -2.65833,2.66001 5.97535,4.76411 5.89617,-4.76411 -2.39553,-2.42164 v -18.6891 l 5.7117,-4.65881 c 1.26179,0.80525 2.13189,1.62144 2.60611,2.44775 0.31503,0.60394 0.47422,1.69894 0.47422,3.26395 v 14.02952 c 0,5.1642 -0.20047,8.37761 -0.57951,9.60739 -0.51296,1.63239 -1.61807,3.15361 -3.29006,4.60659 -1.67199,1.45299 -4.63776,3.07696 -8.89732,4.84328 l 0.44727,1.26347 c 5.25096,-1.85393 9.57875,-4.05909 12.97662,-6.60708 2.59179,-1.92131 4.3817,-3.97065 5.34362,-6.15981 0.60309,-1.34096 0.89538,-3.46443 0.89538,-6.3704 v -15.18769 c 0,-3.19488 -0.32766,-5.46154 -1.00067,-6.79155 -0.67469,-1.32916 -2.12094,-2.70297 -4.34295,-4.13237 l -10.34441,8.23864 v -10.92392 c 0,-2.52104 0.30829,-4.36907 0.89538,-5.52808 0.5854,-1.15987 1.66356,-2.23802 3.26395,-3.26396 z m 297.99331,0.52645 c 2.3871,1.0512 4.1669,2.22875 5.3175,3.57981 1.14891,1.35107 1.71073,2.96746 1.71073,4.84329 0,2.27845 -0.7387,4.38928 -2.21106,6.34343 -1.4732,1.95416 -3.73817,3.85947 -6.81766,5.71171 v -8.71201 h -1.50015 v 27.90152 c -2.75015,-0.84905 -5.68139,-1.26347 -8.76508,-1.26347 -1.81097,0 -3.74239,0.13561 -5.84395,0.44727 3.89063,-2.27676 6.46304,-3.99087 7.73914,-5.18526 1.27526,-1.19356 2.13105,-2.41996 2.58,-3.659 0.44727,-1.23903 0.6848,-3.09886 0.6848,-5.55419 v -13.71365 c 0,-2.47723 0.14909,-4.22671 0.47422,-5.26444 0.32429,-1.03857 0.89706,-1.95163 1.73768,-2.71139 0.83642,-0.75808 2.47471,-1.66946 4.89383,-2.76362 z m -169.11987,0.34282 -1.71073,7.2127 h 1.36876 l 4.60659,-7.2127 z m -34.7714,2.55304 c 3.5158,1.7638 6.18845,3.37008 8.00195,4.84328 1.81349,1.4732 2.99778,2.86049 3.5537,4.13237 0.55677,1.27274 0.84568,2.8706 0.86843,4.79106 -1.69642,1.12954 -3.18731,1.88678 -4.44824,2.31636 -1.26094,0.42958 -2.59516,0.65784 -4.00098,0.65784 -1.40581,0 -2.73582,-0.22826 -3.97486,-0.65784 -1.23904,-0.42958 -2.69708,-1.18682 -4.3699,-2.31636 v -10.8978 z m 110.73682,0.99982 -9.34458,11.55565 v 1.47405 h 3.15866 v 19.16255 c 0,1.56164 -0.17267,2.7552 -0.55256,3.57982 -0.29144,0.64773 -0.89453,1.29294 -1.78991,1.8952 v 0.65784 c 3.17299,0.91896 6.01999,2.68697 8.52839,5.26444 l 7.37022,-5.89617 -0.84231,-0.97371 -2.13189,1.60544 -3.73817,-2.73751 v -22.5579 h 6.71237 v -3.76429 h -6.71237 l 0.31586,-9.26541 z m -252.58773,0.76398 1.76379,0.18446 v 25.0065 c 0,2.61285 -0.17014,4.33706 -0.52644,5.18526 -0.35798,0.84821 -1.34601,1.95416 -2.9742,3.31702 -5.13135,-3.95043 -7.71219,-9.0422 -7.71219,-15.29298 0,-3.66152 0.94592,-7.22618 2.8428,-10.68723 1.40497,-2.56736 3.61688,-5.14652 6.60624,-7.71303 z m 8.68674,1.36875 c 1.62313,0.33777 3.49306,0.65784 5.60642,0.9476 v 34.53471 c -1.93732,0.24175 -3.39114,0.36893 -4.36991,0.36893 -1.84803,0 -3.78871,-0.28217 -5.79088,-0.81619 -1.15733,-0.31082 -2.65833,-0.90296 -4.52742,-1.81602 3.73818,-2.99105 6.22804,-5.19622 7.47551,-6.58097 0.68901,-0.80441 1.12616,-1.52206 1.31653,-2.15884 0.18952,-0.63511 0.28975,-2.13021 0.28975,-4.4752 z m 127.268,0.76313 v 48.82788 h -4.02708 v -46.16955 z m -56.96122,4.97469 c -3.70785,1.89014 -6.07642,3.06095 -7.08046,3.52759 -1.3856,0.62331 -3.11318,1.32327 -5.21221,2.07966 v 19.16256 c 0,2.18832 -0.13898,3.60593 -0.39505,4.26461 -0.25606,0.65869 -0.74628,1.21209 -1.50015,1.65851 v 0.86843 c 2.63222,0.57277 4.65208,1.09416 6.08064,1.60544 1.42855,0.51128 3.26648,1.37633 5.47501,2.55304 l 10.81863,-7.55468 -0.73702,-1.00066 -5.23832,3.57981 -7.76526,-3.07948 v -6.10675 l 15.00407,-10.50276 z m 95.12798,0 -5.94924,4.89634 2.52693,2.60611 v 18.68918 c 0,2.81416 0.27628,4.79443 0.79009,5.92228 0.51381,1.1287 1.65935,2.33404 3.44841,3.60593 l 7.10742,-5.89617 -0.79009,-1.02678 c -0.87853,0.75219 -1.4572,1.2104 -1.73769,1.36876 -0.19962,0.11455 -0.41862,0.15835 -0.65784,0.15835 -0.33945,0 -0.65448,-0.28807 -0.97371,-0.86842 -0.31924,-0.57951 -0.50033,-1.81771 -0.50033,-3.73817 v -18.21496 l 2.68528,-2.60611 z m 19.42619,0 -6.92294,6.05452 0.79008,0.9476 c 0.86506,-0.87348 1.52795,-1.31653 2.0266,-1.31653 0.45485,0 0.88527,0.29818 1.26347,0.86842 0.37819,0.57024 0.57951,1.72505 0.57951,3.44842 v 13.68754 c 0,1.99122 -0.17015,3.34986 -0.47422,4.05404 -0.30408,0.70501 -0.93244,1.38644 -1.92131,2.07966 v 0.6848 c 1.47741,0.40346 2.83605,0.96865 4.08015,1.68462 1.2424,0.71596 2.76951,1.8952 4.60659,3.52759 l 8.52839,-6.86988 -0.76313,-1.10595 -3.44842,2.71139 -3.7904,-2.7375 v -19.50622 l 3.31702,-3.00115 4.21155,5.36973 5.02775,-4.50131 -5.02775,-6.08064 -7.52857,6.55402 c 0,-1.18092 -0.23921,-2.09398 -0.68479,-2.76362 -0.69154,-1.06805 -1.97691,-2.34078 -3.86958,-3.78955 z m 31.69192,0 c -2.00807,2.07966 -4.31937,3.13255 -6.94906,3.13255 -0.42368,0 -1.07815,-0.0447 -1.94826,-0.10529 l -0.47422,0.89537 4.05404,8.58146 c -2.69203,3.13002 -4.58722,5.865 -5.6856,8.21252 -0.83051,1.78907 -1.23735,3.7028 -1.23735,5.73866 0,3.04074 1.89941,6.13455 5.7117,9.26541 l 10.21301,-8.05501 c 0.0657,1.89941 0.37399,3.38693 0.9476,4.44824 0.57277,1.06215 1.69979,2.26497 3.39536,3.60593 l 7.13352,-6.15981 -0.79009,-1.02678 c -0.78587,0.64605 -1.26009,1.00066 -1.42182,1.10595 -0.2628,0.12467 -0.52223,0.18447 -0.76313,0.18447 -0.46327,0 -0.85326,-0.27712 -1.18429,-0.86842 -0.33271,-0.5913 -0.50033,-2.08051 -0.50033,-4.44824 v -14.26705 c 0,-1.6981 0.1474,-3.034 0.47422,-4.02708 0.32597,-0.99309 1.1009,-2.44102 2.31635,-4.31684 l -1.21124,-0.44727 c -0.58035,0.81451 -0.99224,1.30895 -1.23735,1.47404 -0.24596,0.16425 -0.61236,0.23669 -1.079,0.23669 -1.02593,0 -2.49408,-0.29144 -4.42213,-0.86842 -1.92805,-0.57867 -3.71543,-1.33675 -5.34193,-2.29108 z m 51.98569,0 c -3.707,1.89014 -6.05031,3.06095 -7.05434,3.52759 -1.3856,0.62331 -3.13929,1.32327 -5.23833,2.07966 v 19.16256 c 0,2.18832 -0.11287,3.60593 -0.36893,4.26461 -0.25606,0.65869 -0.77324,1.21209 -1.52711,1.65851 v 0.86843 c 2.63306,0.57277 4.65208,1.09416 6.08064,1.60544 1.42856,0.51128 3.26563,1.37633 5.47501,2.55304 l 10.81863,-7.55468 -0.71091,-1.00066 -5.26443,3.57981 -7.76526,-3.07948 v -6.10675 l 15.00407,-10.50276 z m 99.81375,0 c -2.00722,2.07966 -4.31852,3.13255 -6.94906,3.13255 -0.42452,0 -1.07816,-0.0447 -1.94826,-0.10529 l -0.47422,0.89537 4.05404,8.58146 c -2.69203,3.13002 -4.58638,5.865 -5.6856,8.21252 -0.83051,1.78907 -1.23735,3.7028 -1.23735,5.73866 0,3.04074 1.89857,6.13455 5.7117,9.26541 l 10.1869,-8.05501 c 0.0649,1.89941 0.40094,3.38693 0.97371,4.44824 0.57277,1.06215 1.69894,2.26497 3.39536,3.60593 l 7.13352,-6.15981 -0.79009,-1.02678 c -0.78587,0.64605 -1.26009,1.00066 -1.42182,1.10595 -0.2628,0.12467 -0.52223,0.18447 -0.76313,0.18447 -0.46411,0 -0.85326,-0.27712 -1.18429,-0.86842 -0.33103,-0.5913 -0.50033,-2.08051 -0.50033,-4.44824 v -14.26705 c 0,-1.6981 0.1474,-3.034 0.47422,-4.02708 0.32597,-0.99309 1.10006,-2.44102 2.31635,-4.31684 l -1.21124,-0.44727 c -0.58035,0.81451 -0.99308,1.30895 -1.23735,1.47404 -0.24596,0.16425 -0.61152,0.23669 -1.079,0.23669 -1.02594,0 -2.49408,-0.29144 -4.42213,-0.86842 -1.9272,-0.57867 -3.71459,-1.33675 -5.34193,-2.29108 z m 24.00584,0 -7.00213,5.87006 0.8162,1.10595 c 0.1971,-0.17773 0.33271,-0.33271 0.42116,-0.42116 0.59383,-0.57782 1.10005,-0.86842 1.47404,-0.86842 0.46243,0 0.89285,0.32345 1.28958,0.9476 0.50623,0.80441 0.73702,2.32225 0.73702,4.55353 v 16.00389 c 0,1.31737 -0.0868,2.32815 -0.26365,3.05337 -0.17856,0.72523 -0.51212,1.52206 -1.00066,2.36942 -0.17857,0.31334 -0.63763,0.84737 -1.36875,1.60545 -1.53132,1.56164 -2.29024,3.1654 -2.29024,4.81717 0,1.67282 0.70248,3.12581 2.07966,4.34295 1.37718,1.21545 3.33976,1.81602 5.89617,1.81602 2.4427,0 4.45414,-0.54582 6.05452,-1.65851 1.04363,-0.69069 1.57934,-1.39402 1.57934,-2.10578 0,-0.40178 -0.15583,-0.72944 -0.42116,-0.97371 -0.26701,-0.24511 -0.60983,-0.36893 -1.05289,-0.36893 -0.40094,0 -0.7387,0.11793 -1.02677,0.34198 -0.28891,0.22321 -0.65364,0.69491 -1.05289,1.42182 -0.40094,0.72607 -0.79009,1.19776 -1.21124,1.42182 -0.86758,0.47001 -1.98448,0.71091 -3.31702,0.71091 -1.84382,0 -3.32797,-0.47591 -4.44824,-1.44793 -1.12196,-0.97203 -1.68462,-2.04597 -1.68462,-3.18478 0,-0.67132 0.16088,-1.28115 0.47422,-1.81602 0.42284,-0.73786 1.15481,-1.48246 2.15884,-2.26413 0.46664,-0.37988 1.87498,-1.28115 4.23766,-2.71139 5.41522,-3.23447 9.33533,-5.84732 11.76623,-7.84444 2.42923,-1.99711 4.20566,-4.12226 5.34362,-6.34343 1.13628,-2.22286 1.71073,-4.45246 1.71073,-6.68626 0,-4.15427 -1.75874,-8.04659 -5.23833,-11.68705 l -10.0816,8.08112 v -0.73702 c 0,-1.67873 -0.30239,-2.98599 -0.86843,-3.94875 -0.56603,-0.96108 -1.79917,-2.0982 -3.71037,-3.39535 z m -276.01407,2.26413 v 9.89714 c -1.20703,-1.21882 -2.3492,-2.20517 -3.4223,-2.94809 -1.07142,-0.74291 -2.377,-1.44035 -3.89569,-2.10577 z m -51.11811,1.57933 8.34392,9.29152 -8.81814,6.18592 v -15.21464 z m 198.23262,0 8.34393,9.29152 -8.81815,6.18592 v -15.21464 z m -54.69709,0.47338 11.47648,3.50064 v 8.5545 l -7.39633,-3.44842 z m 151.79944,0 11.45037,3.50064 v 8.5545 l -7.37022,-3.44842 z m 41.40544,1.34264 c 2.42164,2.87564 3.63288,5.80857 3.63288,8.81814 0,2.2296 -0.6511,4.59059 -1.97437,7.05435 -1.32411,2.46376 -3.54866,4.83149 -6.68626,7.10741 v -18.92586 z m -256.37813,0.97371 v 10.39747 c -1.8076,-1.00824 -3.33808,-1.68377 -4.55353,-2.05355 -1.2163,-0.36893 -2.47471,-0.55255 -3.7904,-0.55255 -1.31569,0 -2.60948,0.19878 -3.86957,0.57951 -1.26178,0.38072 -2.79479,1.04109 -4.58048,2.02659 v -10.16078 c 1.69557,0.9855 3.13002,1.63745 4.29072,1.97437 1.15987,0.33608 2.43344,0.52645 3.81651,0.52645 1.45046,0 2.78889,-0.18447 4.02709,-0.55256 1.23819,-0.36809 2.80742,-1.11353 4.65966,-2.18495 z m 194.41527,0.55255 c 1.91626,0.82294 3.20415,1.70063 3.89569,2.63222 0.68985,0.93244 1.05288,2.1799 1.05288,3.71122 -1.82865,0.63258 -3.47705,0.9476 -4.94857,0.9476 -1.47236,0 -3.1216,-0.31502 -4.94857,-0.9476 v -3.21089 c 0.86842,-0.47 2.51851,-1.52205 4.94857,-3.13255 z m -127.89973,6.79155 8.13334,3.7904 v 8.23863 l -5.10692,4.08015 c -3.27238,-2.34078 -4.89635,-5.33688 -4.89635,-8.94954 0.002,-2.05187 0.6191,-4.43898 1.86993,-7.15964 z m 151.80028,0 8.10724,3.7904 v 8.23863 l -5.07998,4.08015 c -3.27153,-2.34078 -4.89635,-5.33688 -4.89635,-8.94954 0,-2.05187 0.61742,-4.43898 1.86909,-7.15964 z m -28.84912,1.02678 c 1.76043,0.63257 3.40967,0.94759 4.94857,0.94759 1.42603,0 3.07443,-0.31502 4.94857,-0.94759 v 5.97534 c -1.94068,-0.60225 -3.63204,-0.89537 -5.07997,-0.89537 -1.4951,0 -3.10138,0.29312 -4.81717,0.89537 z m -197.81147,0.99982 c 1.42687,0 2.74677,0.19373 3.97486,0.60562 1.22725,0.41105 2.69539,1.20787 4.36991,2.34246 v 11.42425 c -3.43663,-1.62397 -6.44705,-2.76867 -9.00261,-3.44841 -2.55557,-0.67806 -5.15915,-1.06974 -7.79137,-1.15818 v -6.81766 c 1.71747,-1.13543 3.21004,-1.93141 4.44824,-2.34246 1.23819,-0.41105 2.57241,-0.60562 4.00097,-0.60562 z m 202.47029,5.42279 c 1.42603,0 3.18646,0.3563 5.23832,1.079 v 4.55353 c -2.51935,0.68564 -4.91319,1.63239 -7.18574,2.84279 -0.84821,-0.53655 -1.75285,-0.99645 -2.7114,-1.42182 v -5.97534 c 1.62734,-0.72271 3.1654,-1.07816 4.65882,-1.07816 z"
   inkscape:connector-curvature="0"
   style="fill:url(#radialGradient);stroke-width:0.84231007"
   inkscape:export-filename="G:\Users\suitedoalex\sites\the-pirate-bay-logo-4.png"
   inkscape:export-xdpi="87.115959"
   inkscape:export-ydpi="87.115959" />
</svg>